<svg viewBox="0 0 400 400" xmlns="http://www.w3.org/2000/svg"><g fill-rule="evenodd"><path d="m184.47 202.3c-.07.16-.32 0-.5 0a3.31 3.31 0 0 1 -3-.48c1.31.43 2.13-.1 3.5.48z"/><path d="m179.84 188.84c-.43.19-1.29-.8-1.88-1.07.76.23 1.74.31 1.88 1.07z"/><path d="m176 187.67c-.36.42-1.17-.48-1.81-.87.44-.56 1.33.55 1.81.87z"/><path d="m175.08 185.94c.33.58-1.24-.74-1.59-.73l.31-.42c-1.17-1.21-1.82-.72-3-1.84 1.57-.36 3.2 1.83 4.28 2.99z"/><path d="m174.07 186.51c-.34.49-1.06-.1-1.71-.61a7 7 0 0 1 1.71.61z"/><path d="m173.17 185.63a3.78 3.78 0 0 1 -2.67-1.83c.74-.05 1.21 1.07 2.67 1.83z"/><path d="m156.05 209.25c-.33.28-1.2-.77-1.37-.15-.23-.13-.19-.23-.14-.32l-.47-.37c.47-.18 1.21.36 1.98.84z"/><path d="m153.6 206.05c-.43.13-1-.1-1.71-.67.43-.12 1 .12 1.71.67z"/><path d="m140.5 221.91a8.87 8.87 0 0 1 -2.91-2.11c.69.03 1.95 1.53 2.91 2.11z"/><path d="m168.91 181c-1.24 0-1.87-1.44-2.19-2 .69 0 1.18 1.36 2.19 2z"/><path d="m146.77 200.93c.23.71.86.53 1.57 1.33-.17.46-1.84-1.11-1.34-.22-.42.17-1.31-1-1.91-1.4.53.01 1.28.66 1.68.29z"/><path d="m132.94 215.23c.27.48-3.71-2.57-3.26-3.12a40.34 40.34 0 0 0 3.26 3.12z"/><path d="m138.87 194.78a2.46 2.46 0 0 1 -1.62-1.29c.36-.2 1.11.95 1.62 1.29z"/><path d="m159.6 171.1c-.63.56-1.1-.91-.95-1.16.7-.12.14.79.95 1.16z"/><path d="m149.5 160.56c.3.74-1.11-.91-.95-1.12.8-.23.22.56.95 1.12z"/><path d="m148.19 161.73c-.23.12-.53-.52-.75-.33 0-.51-1.92-2.26-1.34-2.12z"/><path d="m142.19 150.13c-.49 0-2.41-2.68-1.77-3.26a12.33 12.33 0 0 0 1.77 3.26z"/><path d="m114 160.32c1.16.62 2 3.85 0 0z"/><path d="m137.62 139.47c-1.06-.15-1.38-1.39-1.57-2.59.95.24.81 1.88 1.57 2.59z"/><path d="m111.17 145.65a1.33 1.33 0 0 1 -1-1c.09-.82.67-.15 1.14-.45.69 1.48-.48.31-.14 1.45z"/><path d="m107.66 124.38c-.38-.17.12-1.79.11-2.54.62.41-.05 1.46-.11 2.54z"/><path d="m135.17 126.5c-.26 0-.69-.76 0-.57-.24.2 0 .28 0 .57z"/><path d="m98.94 121.71c-.68.19.25-3.61.82-3.11-.24 1.67-.65 1.67-.82 3.11z"/><path d="m135.12 125.63c-.61-.75-.27-.64-.13-1.42.61.54.16.88.13 1.42z"/><path d="m138.47 125.88c-.4-.25.66.21.44 0 .41.26-.2.12-.44 0z"/><path d="m139.08 125.87c-.3-.2-.13-.21-.42-.43.09 0 .39.23.61.37-.2-.05-.21-.03-.19.06z"/><path d="m135.12 123.24c.64.13.84-.44 1.13-1 .23.76-.06 1.59-1.13 1z"/><path d="m166.1 146.89c-.3-.59-.82.56-.89.8-1.95 1.95 1.05-.41.89-.8z"/><path d="m115.16 106.76c-.87.68-.3-.75.49-1.44.91-.01-.93 1.25-.49 1.44z"/><path d="m133 116.37c-.73-.47.64-1.64 1.32-1.78.34.59-1.42.96-1.32 1.78z"/><path d="m136.21 119.36c.56-.71.36-.61.2-.62-.15-.44.68-.33.87 0a.8.8 0 0 1 -.41.52c.18-.4-.64.11-.66.1z"/><path d="m135 112.08c-.69.14.85-.91 1-.66.12.1 0 .18-.08.25s-.13.15-.08.25c-.27.08-.45-.42-.84.16z"/><path d="m128.71 95.35c-.8.09 2-1.38 2.85-1.7-.56.81-1.46.72-2.85 1.7z"/><path d="m135.58 100.53 1-.45c.49.54-.9 1.14-1 .45z"/><path d="m140.68 98.25c.23-1 1.88-.42 3-.81a7.3 7.3 0 0 1 -3 .81z"/><path d="m151 125.88c.3-.13.37.29.74.23.04.52-.68.34-.74-.23z"/><path d="m155.14 103.05c.33-.52 1.66-.51 2.24-.37a12.61 12.61 0 0 1 -2.24.37z"/><path d="m158.87 103.14c.26-.55 2.2.16 3.28-.1-.49.43-2.83.2-3.28.1z"/><path d="m160.89 127.7c.29-.36 1.25 0 .91.64-.56.01-.13-.79-.91-.64z"/><path d="m164.93 105.2c.29-.58 1.55-.29 2.55-.1.11.48-1.73-.06-.85.54-.4.36-1.05-.43-1.7-.44z"/><path d="m169.5 105.33c.43.46-.18.32-.38.64-.4-.24-1.33-.26-1.14-.77a1.68 1.68 0 0 0 .71.33c.31-.06.31-.35.81-.2z"/><path d="m169.29 105.11c.8-.33 1.43.85 2.48.54-.49.7-2.17.04-2.48-.54z"/><path d="m181.31 78.18c0-.74 1.65.19 1.63.44-.41.43-.77-.44-1.63-.44z"/><path d="m183.84 93.78c0-.71 1.93.23 1.35.62a3.21 3.21 0 0 0 -1.35-.62z"/><path d="m192.09 88.13a2.73 2.73 0 0 1 2.09.6c-.26.32-1.45-.47-2.09-.6z"/><path d="m208.35 62.06a2.32 2.32 0 0 1 1.48.25c-.16.27.27.52.07.8l-1-.43c.59-.09.45-.24-.55-.62z"/><path d="m201.06 111.2c3.5 1.24 6.42 3.6 9.86 5.77-4.17-.42-6.25-4.5-9.86-5.77z"/><path d="m214.42 84.27c.18-.55 1.93.12 1.43.75z"/><path d="m219.82 78.58c.36-.24 1.91.82 2.08 1.1-.69.23-1.24-.82-2.08-1.1z"/><path d="m219.91 87a4.61 4.61 0 0 1 2.12.81c-.1.72-1.43-.55-2.12-.81z"/><path d="m224.56 87.24c-1.14-1 2.23.49 1.4.82-.81-.21-.91-1.13-1.4-.82z"/><path d="m226.52 88.38c.1-.46 2.7.93 2.19 1.36-.71-.74-1.02-.53-2.19-1.36z"/><path d="m210.89 117.57c.31-.7 1.69.83 2.07.24.49.44.95.87.79 1.32-1.03-.13-2.12-1.43-2.86-1.56z"/><path d="m218.53 113c-.62-1 1.28.44 1.84.8 0 .16-.18.08-.33 0l-.19.3c-.57-.29-.99-1.32-1.32-1.1z"/><path d="m222.29 116.56a1.93 1.93 0 0 1 2 .53c-.7-.3-1.21-.09-2-.53z"/><path d="m233.17 103.34a3.89 3.89 0 0 1 1.7.78c-.25.52-1.45-.25-1.7-.78z"/><path d="m239.05 95.67c.17-.12.59.27.72.08.2.76.43.79 1 1.37-.66.11-1.56-1.12-1.72-1.45z"/><path d="m248.42 84.65c.15-.71 1.45.76 2.16 1.11-.33.38-1.35-.57-2.16-1.11z"/><path d="m206.72 159a2.11 2.11 0 0 1 1.56.14c-.07.27-.92-.2-.5.27a1.17 1.17 0 0 1 -1.06-.41z"/><path d="m248.72 106.84c.66.13 2.43 1.79 2.24 2.29a18.28 18.28 0 0 0 -2.24-2.29z"/><path d="m207.36 164.29a.76.76 0 0 0 .5-.27c.43 1.13.7 1 1.94 1.91-.95.25-1.96-.83-2.44-1.64z"/><path d="m212.52 160.16c.61-.2 1.46.87 2.22 1.45-.74-.03-1.14-.61-2.22-1.45z"/><path d="m209.89 166.47c.62-.86.84 1.08 1.11.3.3-.31.52.43.33.55 2.19 1.82.39.92-.27 0-.14-.13-.25.05-.38.12-.55-.34-.22-.65-.79-.97z"/><path d="m261.9 107.62a1.93 1.93 0 0 1 1.73 1 4.5 4.5 0 0 1 -1.73-1z"/><path d="m258.2 114.43c.26 1.23 1.6 1.65 2.48 2.07a.7.7 0 0 0 -.7.3 10.67 10.67 0 0 0 -2-1.62.7.7 0 0 1 .22-.75z"/><path d="m260.06 113.28c1.92 1.47 4.5 2 5.61 4.08-.29.24-1.05-.94-1.55-1.25-.3.4.79 1.17 1.43 1.87-1.27-.71-4.55-3.16-5.49-4.7z"/><path d="m213.05 169.38c.38-.35.82.35 1.24.73-.39.12-.79-.27-1.24-.73z"/><path d="m214.2 170.77c.32-.46.7-.1 1.08.32-.34.18-.69.26-1.08-.32z"/><path d="m215.44 171.5c.65-.61 1.18 2.48 1.87 1.17 0 .37-.22.91-.63.87a16.61 16.61 0 0 0 -1.24-2.04z"/><path d="m269.19 121.39.37-.37a8.81 8.81 0 0 0 2.07 2.72c-.26.4-1.17-1.51-1.29-.63-.34-.54-.24-.99-1.15-1.72z"/><path d="m248.48 142.46c.64.73 1.52 1.53 1.15 2-.63-.74-1.63-1.56-1.15-2z"/><path d="m271 124.35c.64.08.72.3.87-.36.2.77 1 1.25 1.4 1 .8.73-.54.69.41 1.48a19.88 19.88 0 0 1 -2.68-2.12z"/><path d="m274.36 122.54c.47-.07 2 1.31 1.28 1.65a5.53 5.53 0 0 0 -1.28-1.65z"/><path d="m273.65 127a3.76 3.76 0 0 1 2.07 1.87 6.28 6.28 0 0 1 -2.07-1.87z"/><path d="m273.59 128c.72-.1 1.13.57 1.48 1.46-.32.21-1.01-1.09-1.48-1.46z"/><path d="m279.36 128c-.21-.57 2.4 2.27 2.43 2.69-.62-.18-1.64-1.99-2.43-2.69z"/><path d="m222.14 177.06c.31-.22.56.11.8.45-.35.43-.61.27-.93.53-.01-.33.33-.63.13-.98z"/><path d="m276.81 133.44c.16-.78 3.16 2.66 3 3-.01.18-2.51-2.73-3-3z"/><path d="m290.32 127.61.72.94c.11.42-.49.84-1.17-.08.59-.05.02-.72.45-.86z"/><path d="m226.28 177.52c.32 0 .72-.35.94.12-.36.19-.72.36-.94-.12z"/><path d="m227.5 179.21c.46-.29.65.19.9.43-.46.28-.59-.16-.9-.43z"/><path d="m285.43 141.58c.64.35.16-.16.57-.4.15.61.83 1.6.28 1.75z"/><path d="m287.54 147.32c-.17.29-.44-.08-.71-.48-.2 0-.21.24-.09.52-1.21-.81-.01-1.64.8-.04z"/><path d="m294.77 142.3c1.67 1.84 1.29 3.08 3 5.15-.71.55-3.01-4.56-3-5.15z"/><path d="m288.46 149.71c.59 0 1.3 1.1 2 1.83-.27-.15-1-.57-.27.63-.12.32-1.15-1.26-.66-.12-1.3-.94.23-1.21-1.07-2.34z"/><path d="m290.28 148.64c1.19.42 2.19 3.92 2.81 5.6-1.63-2.36-1.25-3.55-2.81-5.6z"/><path d="m228.41 183c.45-.07-.22.44.06.53-.47.12-.15-.3-.06-.53z"/><path d="m302.56 160.07c-.15-.54.17-.5.34-.64.37 1.46 1.56 2.83 1.44 2 1.18 2 1.16 4.46 2.16 7.16-.25-.35-.51-.42-.8-.3-.27-4.18-1.83-5.21-3.14-8.22z"/><path d="m296.78 166c.64 1 1.7 4.58.46 3.2.5-.72-.59-1.91-.46-3.2z"/><path d="m307.27 167.34c.34-.92 1.31 3.12.6 2.49z"/><path d="m298.35 170.83c.13-.79 1 3.47 1.27 4.49-.86-.45-.79-2.59-1.27-4.49z"/><path d="m298 171.41c1 2.43.69 6.58.38 8.44-.77-1.92.18-5.32-.38-8.44z"/><path d="m306.22 169.74c1.09.17 0 3 1 2.9.06.71-.36.52-.6.67a26.31 26.31 0 0 0 -.4-3.57z"/><path d="m300.52 173.16c.36-.17.36 1.67.56 2.35-.59-.23-.39-.27-.87.17-.05-1.12.38-1.39.31-2.52z"/><path d="m302.18 175.78c.51.41 1.15 1.8.71 2.38a5.08 5.08 0 0 1 -.71-2.38z"/><path d="m301.64 180.82c.51 1.31 1.2 4.7.67 5.92-.39-.87-.12-1.84-.74-1 .43-.74.26-2.88.07-4.92z"/><path d="m263.94 190.79c.05-.3.34-.2.54-.23.11.83-.31.79-.41 1.27-.61-.11.37-1.12-.13-1.04z"/><path d="m301.38 194.76c1.22-.81-.4 9.3-1.34 7.42.13-.57.39-.37.61-.42-.06-2.01 1.18-4.87.73-7z"/><path d="m261.48 195.29c.16.42.55.89.09 1.26l-.51-.11a2.92 2.92 0 0 1 .42-1.15z"/><path d="m263.43 198.54c.25-.17-.08 2-.49 2.86-.19-.61.24-1.75.49-2.86z"/><path d="m227.75 189.17c0 .08-.45-.07-.51 0-.31-.17.09-.17.51 0z"/><path d="m259.61 202.38a1.55 1.55 0 0 1 .12 1.94 3.31 3.31 0 0 1 -.12-1.94z"/><path d="m295.88 221.17c.28.35-1 2.24-1.32 3.19-.17-.66.53-1.96 1.32-3.19z"/><path d="m259.3 206.08c.29.22-.25.94 0 1.15-.09.21-.19.18-.29.14s-.2 0-.28.15a1.44 1.44 0 0 1 .57-1.44z"/><path d="m226.56 190.55.44.29c-.31 0-.62 1.24-.41.29-.04-.21-.25-.45-.03-.58z"/><path d="m221.23 187.13c.37.32.23.37 0 .35-.23-.27.04-.22 0-.35z"/><path d="m253.94 215.52c.51.5-1.44 2.27-1.94 2.48.12-.44 1.79-1.57 1.94-2.48z"/><path d="m220.51 187.88c0 .2.33.71-.13.38-.19-.36-.32-.61.13-.38z"/><path d="m219.67 187.75.38.37c-.21-.08-.28.1-.65-.31.05-.1.22.05.27-.06z"/><path d="m277 248.72c0 .51-.34 1.17-1.54 2.14-.1-.47.94-1.39 1.54-2.14z"/><path d="m223.81 194.29c.57 0-.11.47.24.76-.15.1-.4-.07-.62-.39.06-.35.65.07.38-.37z"/><path d="m219.34 189.6c.48.57-.3.13-.19.6l-.34-.41c.13-.26.42.08.53-.19z"/><path d="m220.23 191.36c.46.1-.61.37.06.87-.59.05-.56-.79-.06-.87z"/><path d="m217.72 189.83c.1.14 0 .17-.06.25s.06.17.11.14c.11.21-.12.26-.23.36-.41-.47-.07-.58.18-.75z"/><path d="m218.28 193.1.4.58c-.24-.1-.5.15-.78.31-.31-.5.28-.58.38-.89z"/><path d="m213.9 191.28a9.78 9.78 0 0 1 -.64 1.19 1 1 0 0 1 .64-1.19z"/><path d="m256.83 264.53c-.13.84-3.08 1.6-4.63 2.54-.34-.35 2.08-.94 1.17-1.23 1.22.05 1.69-.53 3.46-1.31z"/><path d="m202.76 195.53.12.69c0-.47-.83-.61-.39-.1-.08.61-.35-.3-.62-.05a1 1 0 0 1 .89-.54z"/><path d="m196.85 196.14c-.11.37-.4.39-.68.33.26-.23.36-.57.68-.33z"/><path d="m195.51 287.32c-.1.36-1.93 0-2.2.33a4.61 4.61 0 0 0 1.33.37c-.77.54-2.38-.16-1.78-.74 1.55.2 1.86-.28 2.65.04z"/><path d="m194.83 200.13c-.08.15-.15.31 0 .35-.27.35-.14-.4-.59-.07.03-.41.32-.3.59-.28z"/><path d="m194.73 198.17c-.16.32-.79.12-.89-.09.16-.34.77-.15.89.09z"/><path d="m194.11 200.39c-.31.15-.65 0-1.06-.1.2-.33.76 0 1-.25-.05.2-.05.31.06.35z"/><path d="m192.57 193.21c0 .5-.33-.34-.42.07.3-.92.46 0 .42-.07z"/><path d="m192 194.87c-.15.54-.16.1-.32.64-.1 0 .14-.48.08-.5.24-.55.07-.08.24-.14z"/><path d="m192.87 192.22c.21-.15-.28-.18-.11-.4.07-.4.54-.22.11.4z"/><path d="m191.42 194.71c-.15.52-.78.29-.62-.09s.35-.37.47-.37c-.39.31 0 .81.31 0 .09-.04-.28.6-.16.46z"/><path d="m189.07 194.64-.3.43c-.37 0 .27-.63-.05-.7.28-.32.37.15.35.27z"/><path d="m188.86 192.32c-.65.68-.44-.26-1-.11.47-.42.66.21 1 .11z"/><path d="m191.12 189.16-.33.41c.21-.34-.53-.2 0-.68z"/><path d="m115.35 248c-.45.17-1.59-1.36-3-2.84.33-.06 0-.49-.29-.94.94.67 1.94 2.7 3.29 3.78z"/><path d="m190.85 183.82c-.3.15-.2-.15-.46-.06.53-.32.53-.11.46.06z"/><path d="m93.09 202.26a5.72 5.72 0 0 1 -1-2.79c.6-.86.73 1.27 1 2.79z"/><path d="m100.11 148.13c0-.34.46-1.42-.07-.62a22.42 22.42 0 0 1 4.2-7.3c-1.49 2.52-2.43 4.44-4.13 7.92z"/><path d="m102.68 148.18c.06-1.12.88-2.94 1.06-4.14.64.96 0 1.96-1.06 4.14z"/><path d="m105.73 140.51c-.22 0-.63.67-1 1.14-.12-.72 1.25-2.57 1.19-3.34.58-.64.52 0 0 .6.78 0 .4.17 1.17.15a26.09 26.09 0 0 0 -2 3.95c-.52.6-1 .77-1.29.49.28-1.67 1.75-1.91 1.93-2.99z"/><path d="m105.77 137.62c-.19-.91 1.16-2 1.72-3.08.92-1.67-1.11-.15 1.18-1.64-.87 1.94-1.77 2.69-2.9 4.72z"/><path d="m190 195.25c-.86-.74.29 0-.06-.45.52.43.06.3.06.45z"/><path d="m115.08 125.77c-.47.11 2.2-2.83 3.25-3.89a29.14 29.14 0 0 1 -3.25 3.89z"/><path d="m122.39 120.11c.84-.36.82-.77 1.62-1.56.8.21-1.44 2.36-1.62 1.56z"/><path d="m127.71 119.31c.36-.7.86-.7 1.83-1.77.73.23-1.54 1.67-1.83 1.77z"/><path d="m195.32 194.5c.43.11.24-.28.41-.55.27.46.21 1.38-.41.55z"/><path d="m146.47 128.11-.32-.42c.47-.84 1.71-1.22 2.62-1.86a18.39 18.39 0 0 1 -2.3 2.28z"/><path d="m154.82 115.17c-.08-.3.34-.68 1.14-1 0 .21.22.24.5.14.12.37-1.4.81-1.64.86z"/><path d="m155.36 113.87c.43-.53 1.25-.58 2.26-1.36.5.45-.73 1-1.75 1.49-.05-.2-.23-.23-.51-.13z"/><path d="m157 107.32c.95-.87 1.5-1.12 2.85-2.21a1.26 1.26 0 0 0 .88 0c.31.3-1.67.69-.84 1a21.22 21.22 0 0 0 -2.89 1.21z"/><path d="m176.58 119.53c-.46-.86 2.15-.69 3-1.56-.1-.8-1.68 0-2.38.42-.05-1.41 3.57-.49 3-1.9a20.79 20.79 0 0 0 2.71-.61c.5.52-1.27.55-1.89.9 1.41.27-.91.93.75 1.24a16.55 16.55 0 0 0 -5.19 1.51z"/><path d="m202.72 190.81c-.27-1 .26.08.1-.74.15.28.09 1 .36 1.36.01.67-.32-.65-.46-.62z"/><path d="m203.23 188c.08-.42-.19-.8 0-1.12l.09.88c-.05.06.03.47-.09.24z"/><path d="m203.5 189.31a3.9 3.9 0 0 0 -.23-1.59c0-.29 0-.3 0-.53.05.24.1.29.15.48-.09-.46 0-1.69-.24-1.7.15-1.07.12 1.31.05 1a10.11 10.11 0 0 1 -.06 1.55 9 9 0 0 0 .2 1.27c.11 0 .13-.29.12-.73.09.44.1.16.01.25z"/><path d="m203.12 183.86c0-.15 0 1.1 0 1v.55c.04-.78.04-.82 0-1.55z"/><path d="m209.71 106.58c1.26-.37.37-.41 0-1 .8.09 1-.14 1.8 0-.75.2.33 1.42-1.8 1z"/><path d="m216.07 97.21c.91-.18 2.92.12 2.33.87-1.48-.2-.84-.68-2.33-.87z"/><path d="m231.33 97.58c-.06-.71 4.42 1.27 4.82 1.7 1.18.37 1.29-.19 1.81-.39 1.11.85 1.14 1.72 1.67 2.56-.86-.24-5.35-2.26-4-2.2a34 34 0 0 1 -4.3-1.67z"/><path d="m230.89 117.9c.79-.11 2.49 1.22 2.72 1.63-.61.11-1.79-1.19-2.72-1.63z"/><path d="m238.22 127.5c1.07.52 1.95.68 3.1 1.34-.61.69-2.05-.45-3.1-1.34z"/><path d="m225.67 148.51.31-.42c.24.24 1.11.57.83.86-.18.62-.71-.28-1.14-.44z"/><path d="m225.9 150.48c.35-.31.82-.06 1.31.22-.38.37.25 1-.51 1-.59-.45-.04-.79-.8-1.22z"/><path d="m194.62 187.68c0-.06.34-.31 0 0-.17.15-.17.16 0 0l-.51.48z"/><path d="m194 188.3c-.69.63-.16 0-1.21.92.26-.35.21.02 1.21-.92z"/><path d="m242.7 145.76c.54.38 1.72 1.38 1.17 1.81-.56-.66-.61-1.15-1.17-1.81z"/><path d="m196.63 186.48c.44-.3.85-.56 1-.51a11.38 11.38 0 0 1 -1 .69q.08-.14 0-.18z"/><path d="m240.39 153.75c2.33 1.42 3.6 5.68 2.87 7.44-.92-1.84-.66-4.76-2.87-7.44z"/><path d="m240.21 165.85c.74-.1.42.91 1 1.68.36-.13.41-.43.14-.9.76.37.26 1.43.14 1.86-.41.39-.61-.46-1-.06a7.28 7.28 0 0 1 -.28-2.58z"/><path d="m207 185.65c.6.27.23 1 0 1.51-.44-.3.33-.99 0-1.51z"/><path d="m212.18 198.06.68.29c-.37.13-.59.38-1.22.08 0-.24.36-.23.54-.37z"/><path d="m178.77 201.59 1.13.61c-.14.21-.27.42 0 .59-.42-.07-.6.31-1.16 0 .58-.56-1.06-2.36.62-1.67a.77.77 0 0 0 -.59.47z"/><path d="m155.37 162.1c-1-.51-2.39-2.33-2.33-3.1.53.72 1.5 2 2.33 3.1z"/><path d="m145 154.53c.23.46.09.81.63 1.35-.54.09-1.24.39-.37 1.24a19.29 19.29 0 0 0 -1.91-1.28c.71-.25.56-1.5 1.4-.49.33-.48-.24-.64-.6-1.06-.28-.77.63.71.85.24z"/><path d="m144.9 140.77c-.86.65-1.92-.79-1.31-1.28.53 1.61.47.65 1.31 1.28z"/><path d="m137.69 141.55c.48-.24 1.05 1 1 1.43-.23 0-.42-.2-.66-.12.3-.26.37-.56-.34-1.31z"/><path d="m141.34 127.27c.22.21.4.41.31.08 1.13.7-.21-.48 2.35 0 .31-.14-.53-.86-.13-1l1.1.2c-.09-.57.51-.61.9-.1-.09.06.09.31 0 .4-.57-.4-1.19.23-1.15.81.42-.44 1.28-.35 1.47-1-.08 0-.16.16-.27 0 .21-.09 0-.48.22-.6.22.32.06.62.32.44 0-.19-.05-.48.1-.59a2.06 2.06 0 0 0 2.12-.45c1.1 1.09 3-1.13 3.6 1.22a2.67 2.67 0 0 1 3.15.17c.26 0 .1-.59.43-.55 1.15 1.14 3.12-.37 4.8.4-.2.69-1.68-.41-1.27.53 2.45-.41 4.3 1.42 6.27 1.8-.17.36-.81 0-.86.54.53 0 1.71.73 2.52.64 0 .24.18.39 0 .72 1.44-.09 2.43 1.08 3.84 1.89.38-.3-.27-.78.22-.67l1.13.35c-.32.15-.46.53 0 .73 1.72.38 3.54 1.44 5.34 1.51-.83.35.43.36.51.41s-.16.3-.14.32c2.56 1.85 9.28 3.44 10.16 5.09-.13-.55 1.4-.53 1.8.4-.09.5-.55.09-.73.39 4.83 2.29 9.68 5.85 14.87 9.5-.12-.13-.36-.26-.26-.4 2.29 1.93 3 3.12 5.18 4.35 1.58 1.61 4.89 4.13 5.7 5-.08-.21-.72-1.11-.16-.84 1.07 2.41 2.54 3.77 4.91 6-.41.77 1.19 2.39 1.82 1.8-.42-.55-.81-.72-1.16-.65 0-.36-.79-.8-.11-1.1.8.77 3.26 3.06 1.58 2.33 2.69 1.91 2.36 3.5 4.47 5.23-1 1.46 2.22 3.27 1.35 3.66a1.64 1.64 0 0 1 1 2c-1.2-.89-1.46-1.89-2.44-2.41.41.43.72.85.49 1.19a1.61 1.61 0 0 1 1.23 1.72c.63-.47.49.48.44.63.57-.16-.13-.47.43-.63a3 3 0 0 1 1 2.65.43.43 0 0 0 -.5-.21c.49.41 0 1.4 1 1 0-.23-.56-.5-.23-.72.73.61.61 1 .33 1.37 0-.07-.16-.39-.27-.13 0 .48.23-.19.74.73-.93 1.38-.14 1.87-.4 2.71.64-.06.67.44.71.68a1.85 1.85 0 0 0 -.51.15c-.46.08-.16-.2-.71-.06-.08.21.46.73-.38 1 .38.07.87.59-.31.55-.07-.19-.43-.42 0-.57-.5.09.12-1-.83-.72.24-.09.59-.15.48-.3a8.4 8.4 0 0 0 -1.17-.17c1.22-.28-.66-.19.42-.54.12-.24-.49 0-.6-.12.07-.24.44-.46.44-.73-1.84-1.24-1.21-3.26-4.13-6.55.34.75.92 1.48.68 2.14-.2-.18 0-.89-.53-.73 0 .31.39.64.24.93-.72-.47-.27-1.46-.67-1.54.42.76-.56.36-.56.42-.08.41.56.5.25 1.26.29-.16.22-.35.49-.52.13.27-.23.51-.09.78 2.8 1 2.1 2.91 3.37 3.74-.83.38-.3.46.1.29-.13.41-.46.57-.8.81 1.28 0 .12.9 1 1-1 .42.29.68.14.85a1 1 0 0 1 .35 0c.13.1.33.16-.15.19s.31 0 .18-.11c-1.28.13-.25.33-.67.44a1.4 1.4 0 0 1 .51.21c-.5-.08-.37 0-.34.14.48.17.76.32.58.4 1.26.26.9-.18.81-.36.61.24.8.11 1.18.33-1-.16-.39.54-.71.66.08-.05.1-.14.53 0 0 .12.41.55-.14.48.27-.18-.52-.41.1-.31a3.32 3.32 0 0 0 -1.25-.14c.48.25.28-.06.86.27 0 0 .1.11.11.16-.5-.15-.38.43-.94 0 .07.46-.32 1-1.32.62a2.74 2.74 0 0 1 -1.28 2.51c-.2-.16-.45-.46-.57-.41.23.33.09.56.18.86-.46-.42-.14.21-.44 0 .07-.13-.2-.36-.24-.52a.44.44 0 0 1 -.49.23c.31.44.42-.09.77.49-.22.16-.06.42-.17.62-.73-.2-.43 1.15-1.57 1.16-.12-.2-.08-.36-.35-.62-.3.32.17.88-.09 1.23-.13-.22 0-.36-.14-.57.35 1.42-1.83 1.14-2.12 1.37.14 0 .41.05.3.21-2 .87-3.45 2.24-5.5 3.11-.1-.17.07-.34-.15-.32-.71.63-5.06 4.32-4.82 2-.12 0-.28.1-.33-.06.15-.09.4-.12.36-.32-.51-.07-1.18.63-1.75.91a3.43 3.43 0 0 0 -.62-.54c-.75 1.53-2-.24-2.9.56-.13-.44.53-.28.28-.8-1.17 1.75-3.87 1-5.73 1.59-.08-.46.77.12.49-.55-1.38.6-4 .12-5.47.46.41-.54-.44-.24-.41-.72 1.09-1.14 2.11 0 3.6-1-.07-.25.11-.9-.14-.87-.38 1.64-1.89.69-2.83 1.2 0-.28-.35-.16-.18-.71-.94 1-2.55.5-3.38-.27-.41.67-.74-.3-1.25.06.21-.18.42-.93.68-.92 0 .46-.45.68-.12.69.44-1.24 1.16-.13 1.56-.57-.21-.08.18-.28.14-.69-.48.44-.67-.13-1.05.32 0-.57-.46-1.17-.44-.09 0-1-.61-.44-.54-1.25.5.32 1-.4 1.55-.32-.14-.68-.4-.37-.67-.49a3.27 3.27 0 0 1 .21-.5c-.7-.36-1.2-.28-1-1.47-.1.18-.22.45-.29.44.08-.72-.8-.92-1.33-1.12.08.06.14.12 0 .36-.31-.12-.8-.38-.42-.93-.21-.06-.52.57-.72.36 0-.48.31-1.06.26-1.55-.18.73-1.68 0-.55-.67-.41-.41-1-.33-.64-1.27a2.79 2.79 0 0 1 -1 .24c-1.14 1.24-1.45 1.23-2.32 2.16.71.12 1.15.25.54 1.21.39-.23 1 .35.93.79 1.26-.33 1.13 1.37 2.17 1.87-.53.68.15.31-.08.95l-1-.26c.43-.35.37-.57.44-1a.43.43 0 0 1 -.69-.47c-.56.51.18.49 0 .85-.49 0-1-.22-1.5-.25.46-.92-.26-1.34-.91-1.44.11-.46.16-.5.59-.65a2.21 2.21 0 0 1 -2-2.25c-1.23.64-.44-1.15-1-1.14a.82.82 0 0 1 -.21.58c-.11-.33-.44-.06-.55-.39.57-.4.2-.67.3-1-.31.11-.32.59-.56.41-.27-.79-.43-1.1-1.13-1.3.45-.36.92-.57.66-1a1.78 1.78 0 0 1 -.65.28c-.09.29.62 0 .21.35-.51-.24.2-1.09-.93-.84.11-.16 0-.29.56-.49 0 .14-.59.35-.37.47.66-.45.83-.15 1 0-.3-.49 1.46-1.48.21-1.06 0-.7.78-1.14 1.2-1.44.24-.07.26-.1.49-.16.41-.08-.83.28.21 0 0-.07-.19 0 .36-.12 0 0 .05-.08.27-.15-.32.18.68-.21.44 0 .63-.24.52-.16 1-.34a4.58 4.58 0 0 1 .62-.27c.58-.16.3-.17-.21.28-.11 0 .06-.21-.26 0 .17.07-.65.15-.45.24a4.2 4.2 0 0 1 1.14-.17c-.65.26.45-.1-.4.42.21 0 .58-.19.75-.17-.82.82-.08 1.62.1 2.28.06-.22-.08-.37.38-.66h.21c-.45.65.6.53-.09 1.21.29.33.35.22.3.64.35-.19.59-.57.84-.15-.28.22-.42.06-.71.28.43.59 1.83 1 1.55 2 2.64-1.29 1.75 2.82 3.5 1.49-.13.2 0 .2-.08.37-.09-.18-.24-.07-.46.34.33.1.31.26.5.69.44-.8-.07-1 .17-1.73.29-.23.48.19.66.2.23-.41-.24-.8-.38-.85s-.35.46-.41.39.13-.47.06-.58c-.27-.46-1.49-.12-1-1.2.16.26.41.18.7-.1-1.25-.56-1.71-1.48-2.81-2.53.13-.12.2-.1.32-.18-.73-.1-.45-1-1.48-.86.22-.14.33-.09.53-.21a3.35 3.35 0 0 0 -1-.17c.42-.13.36-.5.72-.79-.31.22-.49.27-.56.15.13-.24.42-.18.41-.33a1.79 1.79 0 0 0 -1-.22c.29-.15.65-.11.82-.36-1 .17-.06-.75.19-.61-.21 0-.51.22-.16.1-.41.16-.51.15-.66.23.68-.21.09 0 .48 0 .6-.14.06-.13.49-.23a1.27 1.27 0 0 1 1 .36c.67-.84-.88-.83.53-1.11.37-.18-.14 0-.19 0 1.05-.48.06 0 .41-.22 1.36-.58 0 0 .4-.12l.32-.17.15-.07c0 .08-.38.71.38.23.05.17-.8 1-.37.92a2.43 2.43 0 0 1 1-1.27c.22-.13.3.14.41-.08-.71.1-.5 0-.7-.06-.23.14.11.05-.4.32 0-.08-.31 0 .16-.3.3-.1.8-.44.48-.24-.16.07-.56.29-.61.32.23-.12.15-.07.16-.07l.64-.29a3 3 0 0 1 -.36.19c1.14 0-.64 1.33.19 2.59 0-.07 0-.13.17-.13-.73.31-.16.85-.7.86.21.13.57.82.27.89s0-.61-.4-.62a.4.4 0 0 0 -.32.26c.5.31.27.38 0 .74l.49.38c-.37.77-.18 1.29-.53 2.13a.93.93 0 0 0 .55-.08c-.22.35-.42.78 0 1a4.36 4.36 0 0 1 1.06-.84c-.49.76-.32 1.47-1.13 1.46-.07-.2.56-.32.06-.51a1.67 1.67 0 0 1 -.82.64c.31.06.38.19.25.37.5-.1.9.37 1.06.63-.64-.12-.55-.4-1.09-.54 0 .47-.31 0-.46.18-.34.43.52.59.45.91.55.12.66-.12 1.09-.11 0 .43-.71.2-.86.48.41.16.57.08.62.33-1.38.08-1 .46-1.34.49-.33-.23.34.12-.06-.14a2.32 2.32 0 0 0 -.37-.14 7 7 0 0 0 .83.58c-.49-.33.05-.1-.19-.37.23.14 1 .77.6.33-.06 0-.11 0-.34-.17 0-.21.1-.3.26-.54 1 .79.95.45 1.67.7-.08-.26-.36-.24-.33-.4 1.06.17 1.13-.18 2.28-.49-.18.55.49-.13.55.45-.06-.54.32-1.15.7-1 0 .18-.6-.59-.41-.57s.4.51.48.08c.33.54.6.79.81.71 0-.16-.38-.56-.27-.69.37.07.34-.08.59 0a.93.93 0 0 0 .1.6c.14-.28.3.22.35.39a1.31 1.31 0 0 1 1 .23c-.46-.73-.89-1-1-1.63-.29.06-.65-.56-1-.86a4.71 4.71 0 0 1 4.61-.41 2.28 2.28 0 0 0 .71 1.42c-.81-3.29 2-.29 2.17-1.84a12.88 12.88 0 0 0 -.66-2c.56-.08.33-.86.4-1.57.23-.36.5-.36.69-.58 0 .21.08.41.12.35s-.14-.33-.18-.87c.19-.12 0-1.8.32-1.52a8.59 8.59 0 0 1 -.15-1.93c0 .21.13.17.09 0s0-.24 0-.16c0 .28.11 1.36.08.54a14.93 14.93 0 0 1 -.17-1.59s-.24-.09-.29-.48l.15-.77a7.83 7.83 0 0 0 -.32-.8c.31-.7.5-1 .7.07.17-.34 0-1.71-.06-.53a4.54 4.54 0 0 1 .07.86c-.11 0-.1-1.08-.25-.21.21 1.17.39 1.89 0 1.51.24 1 .39.11 0-.62-.85.1 1.57.37-2-.18a1.53 1.53 0 0 1 .06-.51c0 .1-.16.54-.2.62-.08-.16.51-1.61-.29.17-.12.19.25-.57.22-.52s-.16.33-.4.82a9.11 9.11 0 0 0 -.7 4 5 5 0 0 0 -.68 1.35c-1.09-.24.59-4.39.63-4.19.89-1.38 1.42-1.89 2.21-3.17 0 0 .09 0 .19-.1a15.13 15.13 0 0 1 2-2.66c.17-.24 0-.14.09-.35.13.08.52-.5.79-.76.11-.21-.16-.12 0-.39a34.81 34.81 0 0 0 4.09-9.19c-.29-1 .14-2.87-.37-3.86.55-.55 0-1.56.63-2.19-.29-.05-.43-.2-.35-.5a.39.39 0 0 0 .61-.15c-.65-.07.06-.84.06-.91.14-1.36-.59-3-.49-4.48 1.82 0 2.55 2.5 4.11 2.38.27.71 1 1.21.62 2.11-.44-.18-.85-.3-1.12.22a12 12 0 0 0 2.23 3c-.71 1.3 1 2 1.5 3.21-.23.26-.44-.09-.68.34 1.36.68 2.44 2.56 3.05 4.14-1.22 1.74 1.09 4.14-.69 5.4.19.71.49 1.41 0 2a6 6 0 0 0 -2.59.85c-.59.7-.11 1.71-.48 2.48.6-.26 1.49.23 1.26.87-.36.06-.56-.19-.89-.17-.72.89-1.54 1.11-2.38 1.89.19.36.63.86-.1 1.23-.17-.16.29-.66-.22-.56.12.37-.47.58-.39.93 1.1-.42.23.42.28.65.51.18.79-.35 1.42-.25.58 1.52-2.25 3.38-.47 3.95.19-.2.12-.55 0-.85a11.52 11.52 0 0 0 2.58-4c.23 0 .39.06.71-.11-.28-.4-.72-.5-1-.93.26-.3.5-.61.15-1.08.94.21.56-.7 1.15-.95.39.32.45.24 1.06-.16.11.27.51 0 .53.41a29.79 29.79 0 0 0 .51 4.58c.9-.9.83-2.42 1-3.6 1.55-.34 1.78-1 2.48-2.32 0-.57-.57.11-.56-.46 1.54-1.16 1.94-3.13 4.07-3.72.94 2 2.63 1.28 3.43 3.55.74-.24 1.18.38 1.84.36.33-.18.3-.52.44-.78a1.52 1.52 0 0 1 1.16.65c2.45-.13 1-2.5 2.57-3.15 1.24 1.55 1.58 4.37 2.89 5.46a1 1 0 0 1 1.56-.89c.18-1.34 1.48-1.9 1.56-3.38-1.45-2-3.48-1.11-5.1-3.2 2.23-2.49-1.32-8.38-2-10.35a.52.52 0 0 1 -.2.68 5.66 5.66 0 0 1 -.93-2.1c-.48.53-.92-.71-1.38-.66.07.36.21.72-.17 1-1.94-2.87-4-3.52-6.47-5.68-.17.13-.32.39-.52.25-3.13-3-5.91-4-9.34-5.26-.11.17-.19.46-.39.38a4.22 4.22 0 0 0 -1.87-1.21c.12.08.15.2 0 .38-2.29-1.4-6.81-1.22-5.92-3.8-.79.06.14.24.08-.13-.58-.5-.48-.81-.26-1.63-1 .16-1.62-.92-1.08-1.47-.05-.24-.28-.35-.17-.72-.66-.19-.43-.17-.84.12a.74.74 0 0 0 -.19-.54c.33 0 .73.08.65-.31-1.45 0-.26-.81-.83-1.29-.84 0-.53 1-1.79.88.52-.42-.08-.68 0-1.23.15 0 .9.39.93 0-.59 0-.38-.63-.71-.84a1.78 1.78 0 0 0 -.94.22c.84-.68-1.22.08-.75-.84 1.61.37 2.92 0 4.51-.16.77 1.23 3 .89 3.39 2.35a1.6 1.6 0 0 0 -.73.19c.46.25.43.74.7 1.08 2.39.38 2 3 4.11 4.1.36-.88 1.37-.53 2.19.06.34-.82.91-.39 1.54.15.27-1.72 2.49-.74 2.38-2.31.17.34.65.6.9.27 0-.33-1-.49-.59-.9.16-.21.58.12.92.28.74-1.63-1.74-3-2.21-4.44 4 .85 4.53 3.9 7.32 5.35l-.4.58c2.07 2.13 3.75-.1 5.51 1.88a9 9 0 0 1 5.51 2.22c0-.33 1.53.89 2.06.69 2.9 3.54 2.63-2.14 3.88-2.26-.13-1.14-.65-2.41-.26-3.41.77.82.84.44.59-.14l.83.91c.76-.8 1.56 0 1.09-1.41-2.44-2-3.84-4.5-3.95-6.5.39.33.49-.17 1 .39.75-.41-1-1.41-.55-1.9 1.52 1.75.93 2.81 2 4.57.17-.54.63 0 .84-.38-.39-.48-.63-.39-1-.83.68.22-.07-.87.26-1.23-1.09-.94-.72-1-1.65-2.17-.3.13-1.85-.85-1.88-1.42 1.55 1.44-.11-.74 1.21.12-2-2.17-2.44-3-3.88-4 1.08.47 2 .65 2.53.08-.84-.46-.34-.69-.55-1-3.46-2.93-4.08-5.53-9-8.43 1.68-.1 4.67 1.81 7.81 3.7.78-.1 1.83.22 2.19-.61-3.31-2.31-7.48-6.11-12.1-6.95-2.06-2.11-8.41-2.63-12.75-3.83-.43-.14-1-.3-1.67-.44a10.58 10.58 0 0 0 -2.9-.27c-1.45 0-2.8.23-3.32.77-5.58-.47-11 .57-17.23 1.67-.51-.39.94-.91-.5-.64-1.55 1.29-5.65 1.68-7.21 2.62a96.19 96.19 0 0 1 17.07-2.4c.1.25.62.27.77.49-4.12-.34-8.43 3.28-8 1.74-.29.3-1.94-.25-3.13.19-.45 1.71-3.42.78-5.56 1.5.22.4-1.22.46-.76.94.24.45 1.39.14 1.59.67-1.62 1.65-3.83 1.59-6.66 2.65-.21-.2-.48-.16-.19-.5-.73.32-2.68 1.59-2.85.72 1.35-.93.54-.16 1.55-.45.38-.84-.4-.91-1.36-.78.79-.68.37-1.55 1.65-2.12a2.28 2.28 0 0 1 -1.39.12c.06-.48 1.07-.78.95-1.27a13.12 13.12 0 0 1 -4.21 1.29c.38.84-1.69 1.35-2.26 1.51.17-.61 1-1.06 2-1.22-.9-.5 1.14-.74.58-1.2-1.36.31-3.87 3.61-6 3 2.78-1.12 3-2.1 4.48-3.16.09-2.52-3.54-.41-5.77-.12-2.55 1.51-7 2.67-8.64 4.45 1-.37 2.91-1.88 3.73-1.17-.2 1.08-2 .65-1.9 1.51 1.42-.58 1.76-1.26 2.64-.91-.4.21-.12.41-.42.61-1.29.52-2.9.89-3 .35.38.41-1.09.13-.79.68.51-.13.73.22 1 .39 1.42-.89 2.48-1.23 3.08-.8-1.66 2-3.89 2.22-4.92 4.18a3.65 3.65 0 0 0 -2.72 1.37c.48-.37.74-.31.85 0a49.33 49.33 0 0 0 -10.23 6.71c.6-1.19 1.32-1.44 2.29-2.6-.73.22-1.62.85-2.17.66.65-1 1.2-1.88.81-2.27 1.39-1.37 2-2.58 3.95-3.45-1.06-.17-2.16 1.08-2.93 1.92-.11-.14-.35 0-.49 0 .72-1.8-.33-1.94-1.73-2.67 5.47-5.21 11.68-6.82 17.69-11 2.43-1.08 5.31-1.39 8.86-3.08 0 .45.75.11.68.68a17 17 0 0 1 8-2.11c-.06-1.25 3-.57 4.14-1.36.21.2.51.18.15.51 2.5-1.69 4.72-.12 8.07-1.18-1.63.12 1.21-1.15-1.68-.64-.43.48 1.1.5.15.69-.16-1.12-3.08-.21-4.39-.84-1.75 1.45-4.09.93-6.77 1.83-.38-.25-1.34-1.06-2-.27 1.38-.54-.07.67-.06.94-2 .65-4 .74-5.69 1.32.29-1 .34-.73 1.87-1.14-.27-.6-.56-.31-.39-1-1.64.42-1.52 1-2.15 1.45 0-1.27-4.05 1.17-5.48 1.16.23.31 0 .63-.73 1 0-.29.25-.46-.24-.47-6.24 3.08-11.39 6.66-16.75 10-1.44 1.59-5.94 5.88-6.85 4.37-6.64 4.2-11.88 10.66-17.66 17.91-1.08 3-3.31 6.14-5 8.72.26-.36-.06 1-.64 1.59-2.18 2.33-.15-2.49 1.15-4.73-1 2-1-.53-1.17-1.14a106.19 106.19 0 0 1 6.37-11.3c.74-.77 1.2-.62 2-1.55.59-1.71 2.57-2.6 3.88-4.1.74-.88.78-2 1.59-2.82s2.26-1.22 3-2c.46-.49 1.1-1.42 1.49-1.8 0 0 0 .43-.05.5.87-.74 1-1.46 1.7-2.12.13-.12.56.2.65.15 1.26-.66 2-2.45 3.1-3.47 1.2-.26-.51 1.39.86.46-.29-.52 1.07-1.38 1.3-2 1.46.15 3.43-2.53 3.61-1.48a49.26 49.26 0 0 1 7.57-5.56c-.39.2-.5 0-.6-.25 2.43-1.47 3.31-1.78 4.48-2.83.09.16-.17.33-.16.49a51.94 51.94 0 0 1 9.65-4.46 4.71 4.71 0 0 1 .79-1.08c1.07 0 1.22-.22 1.72-.89.84 0 .8.79 1.72.13-1.45 0 1.25-1 2-1.4.13.32 1.09-.13 1 .41.25.35-1 .54-.93.86 2.41-.84 2.23-1.33 2.13-2.17-1 0-2.5.52-3.56.61-.39 1.11-4.47 2.06-5.47 2.08.47-.2.2-.42.58-.62.13.17.13.48.57.34 1.63-1.9 4.25-2.1 7.27-3-1.11-.37.54-.74.36-1.41-3 1-6.05 2-8.62 3 1.27-.15-.86.92-1.17 1.24-.79 0-3.05.45-3.46.89.43-.16.51.08.59.32-1.87-.1-3.79 1.31-5.9 2.08 2.22-1 1-.89 2.53-1.86-1.63.55-2.6.78-3.39 1.9l-.26-.46c-3 2.09-8.47 4.08-12.07 7.19-.18-.14-.24-.45-.64-.2-3 2.77-8.57 5.65-9.69 7.63-.57-.38.81-1.86 1.82-2.2-1-.75-2.2 1.46-2.91 2.2 0 0-.29-.21-.24-.26-1.1 1.19-1.12 2.17-2.32 3.47-1.53 1.63-2.65 1.44-4.51 3.71 1.22-.09-2.13 2.19-2.47 3.44 3.07-3.43-2.72 4.42-3.62 3.72 1-1.06.74-1.49 1.25-2.31-1.47 1.86-1 .86-1.81.8-1.08 1.62-1.64 1.44-2.5 2.53.57.1 1.64-1.26 2.36-1.54a3.82 3.82 0 0 0 -.68 1.1c-.82.62-1.94.76-1.9 2a.67.67 0 0 0 -.85 0c4-5.94 5.55-8.28 10.54-12.23 2.31-3.15 6-4.91 8.4-8 .25.23 1.12-.77 1.29-.37 3.69-3.51 9.08-5.16 11.83-8.27-1 .56-2.24 1.55-2.57 1.17 1.07-.62 5.56-4 5.14-2.3a15 15 0 0 1 2.65-1.75c.15-1-1.79 1-2 .54 1.47-1.05 5-3.1 6.6-2.89 6.47-3.25 11.64-5.47 16.67-6-.06-.94.91.13 1.67-.18.92-.52-.63-.69.11-1 .39-.12.42-.28.73-.42 1.47-.63 1.55 0 2.57-.17.36-.59 2.45-.94 4-1.33.68 1.23 3.33-.36 5.18-.53a103.83 103.83 0 0 1 24.13-.27c-5.18-.92-7-.59-10.92-1.21-5.69.81-12.45.72-17.88 2.12 0-.44-.79-.37-1.05-.66.43-.36 1.51-.63 2-1-1.69 0-6 2-8.81 1.87-.05.63-1.42.72-2.33.93-.94 1.48-6.73 3.47-8.89 4.22-.05-.35 3.39-1.42 2.1-1.25-1.12.45-2.27 1-2.46.44.62-.37 2.29-.71 2.19-1.09-1.31.25-3.63 1.57-3.46.29-1.64.54.8.39-.83 1.11-.14-.09-.4 0-.83.16-.83-.53.32-1.06.61-1.59-1.91.29-1.69 1-1.67 1.28-1.39.08.7-1-.47-1a22.88 22.88 0 0 0 -4.22 1.66 1.24 1.24 0 0 1 .9 0c-.7.23-1.27 1.21-1.83.92.42-.25 1.06-.5 1-.71-2.28.6-5.41 2.65-7 2.71-.75.71.91.07 0 .8-1.89 1.41-2.15.57-3.55 1.32-.06.32.9.5.13.94-1.29.67-3.19 2.32-3.43 1.53.27-.39 2.57-1.8 1.54-1.4-1.79 1.47-3.32 2.18-3.72 3.35-1.49.79-.32-.94-1.64-.13-.41.42.35.58-.26 1-.64 0-4.67 2-2.58 1.42a29.34 29.34 0 0 0 -3.75 2.77c.12.25.54.4.14.8-5.91 4-9.86 9-14.6 13.84.13.33.79-.23.42.33-1.86 1.81-3.42 3.16-3.89 5.09-.21-.12-.19-.4-.15-.69a24.18 24.18 0 0 1 -3.87 4.93c.15-1.47 2.07-3.19 1.44-4.25-1.85 2.87-1.47 4.72-3.81 7.94 0 .8 1.22-.82.61.33a5.51 5.51 0 0 0 -1.32 2.75c-.51-.31-1.3 1-2 1.85-1.35 3.69-4 7.28-4.37 11.34-3.58 7.62-5.74 22.19-4.24 29.68-.42.56 0 3.3-.74 3.05.92 3.2.18 5.11 1.3 7.28-.09-.69-.16-1.34.17-1.19.36 1.3.33 1.46.82 3.84-.26.12-.61.08-.26 1.17 1.49 1.36 1.45 5.89 2.08 8.31.38 0 .1-.77.17-1.15.71 1.86 2.1 5.25 1.43 6-.64-1.16.07-2-.74-2.47.21.69-.15.69-.12 1.16 2.79 5 5.8 11.47 7.38 14.36.57 1.09 1.37 1.27 1.63 1.74.7 1.29.68 2.65 2.3 4.51-.3-.34.35.54 1 1.5.23.43 3.32 3.92 3.49 5.23-.22.44-2.34-2.57-1.78-1.41a13.44 13.44 0 0 1 2.22 2.8c.47-.88 2 1.35 2.24 2.16-1.12-.86-2.37-2.44-3.2-2.51 1.91 2.07 5.91 5.24 4.56 6.09.13-.12.68.42.6.66-1.54-1-1.32-.23-2.69-1.12 4.91 3.22 6.58 8.27 12 10-.12.33-.62 0-.77.26 1 .91 1.31.39 2.6 1.73-.28.2.15.63-.08.85a10.71 10.71 0 0 0 2.7 1.66c-1.68-1.14-2.08-2-2-2.64 2.14 2.09 3.84 2.26 5.54 4.62-1.36-1.21-1.4-.36-2.76-1.58.12.6-.52 1 .87 1.95.21-.18.23-.64.76-.32-.78.51 4.14 4.16 6.44 5.54.75-.31-.74-1.06-.28-1.42a8.93 8.93 0 0 0 2.33 1.63c-1.09-.12-.76 0-.93.69 1.31.92.87-.18 2 .5-.37.57 2.11 1.57 2.22 2.2 2.17.49 2.52 1.21 2 1.48 2 .42 2.68.9 4.18.95.68.68-.12.19-.25.66a9.75 9.75 0 0 1 3.35 1.64 13.66 13.66 0 0 1 2 0c.73.65 1.91.82.31.68 5.23 2.29 7.47.72 9.85 1.81.58-1.21 2.64-.06 4.29.68.7-.27-1.07-.9.13-.7a9.94 9.94 0 0 0 4.12 1c.32.63-.81.4-1.05.7 1.07-.1 2.52.5 2.81.33a2.8 2.8 0 0 1 -1.33-.77c1.1.21 1.41-.05 2.77.25l-.05.53c4-.37 9.19.89 10.86.13 1.42-.08.92.51 1.77.62 0-.24-.2-.4-.44-.55 1.09-.33 6.23 1 3.5 0 2 .08 2.71.76 3.93.33-1 0-1-.46 0-.52-.61.25-.29.58.9.49a6.37 6.37 0 0 1 2.09-.65c-1.11.55 2 .2 2.58 0-.34 0-.84.06-.87-.11.85-.12 3.1-.65 3.81-.32-.23.27-1.61.21-1.64.52 1.46.18 1.84-.43 3.31-.71.8 1 4-1.26 4.67-.08-3.42-.17-5.32 2.26-7.52 1.11 0 1-1.47.51-3.35.93.54.52-.64.47-.8.75 2 0 1.21-.27 1.69-.45.43.16 1.6-.06 1.36.43-.51.07-1.24.06-1.29.27 1.79-.26 2.72-.11 3.1.29 2.17-.69 3.87-.26 8.49-1.29.73-.44-.68-.44.7-.84 5.64-.11 10.1-2.83 14.23-3.63.66-.75-1-.75.87-1.35 1.07-.06.9.36.74.88 3.42-1.81 6.13-1.57 9.93-3.29 1-1.95 6.92-2.94 8.69-5.18-1.63 1.05-3.92 2.13-5.09 2 1.17-1.21 5.47-3.49 5.47-2.17 1.77-1.55 4.17-1.38 4.33-2.67 1 .8 5.21-1.69 7.38-3.54-.32.26.65-.17 1.57-.78 4.74-3.35 10.74-7.53 14.35-12.2.23.17.39.48 1.05-.25-.28-.36-.58-.7.38-1.56.49.06-.54 1.3.72 0a2.94 2.94 0 0 1 1.52-1.83c.53-.92-.73.14-.07-.69a4 4 0 0 1 1.56-1.14c.19.21-.72 1-.25 1 .91-1.54 1.32-1.66 2.49-3.52-.4-.43-1 1.26-1.8 1 5.14-8.78 12.77-19.39 16.46-30.87.63-.41-.87 3.16 0 1.65 1.35-5 1.08-6.13 2.86-9.72.48-1.92-.11-2.11-.11-3.28.77-1.82.51-7.42 1.71-9.49-.62-.33.24-2.63-.3-3.74.65-.06.55-1 .24-1.59 1.07-.28.27-2.92.85-3.75-.62-.82-.55-2.31-.37-4.21-.33-1.13-.39.71-.56-.46.25-2.63-1.27-6.11-.3-7.78-.88-1.35-2.27-7.67-1.95-9.33-1-.13-2.53-5.17-2.12-5.35-1.18-1.88-1.76-2.46-3-4.53.34.14.7.52 1 .66-3.6-9.16-7.73-13.9-12.28-21.7-.23.2-.54 0-.88-.33-.51-2.93-6.08-6.1-4.52-7.45-1.19-1.41-.57.28-1.6-.53-2.54-3.34-4.95-5-5.91-7.12-1.85-1.28-2.43-2.06-4.61-3.69.21-.36.84.56 1.1.35-2.4-2.3-4-3.07-5.17-5.46-.46.71-1.7-.78-2.29-.45 1.3 1.29 3 2.89 3 4.22-1.29-.74-1.08-1.9-1.84-2 1.6 3.08 3.86 3.43 6.54 6.37a.63.63 0 0 1 -.61.13 11.68 11.68 0 0 0 3.1 2.73c3.66 5.49 10.5 10.55 13.41 17.34 2 1.35 4.29 5.14 6.42 8.72-1.05-.34-2.66-4.21-3.7-4.24 1.09 1.46 5.75 9.24 4.06 8.68.41-.2.8-.75 1.34.35s.11 1.07.51 2c1.48.61 3.47 7.31 4.21 10.08-.07-.35 0-.55.19-.55 0 .85 1.78 3.63 1.55 5.48-.22-1.08-.49-1.74-.81-1.76-.13 2.09 1.08 1.39 1.43 3.59-.36.25-.51-1.3-.85-1.26 1.3 3.79 2 11.32 2.44 15.12.6.58.05-1.66.65-1.09 0 .75.34 2.64 0 2.59s-.33-.83-.57-1c.3 7.77 0 15.82-2.78 25.09-1 1.11-2.11 7.17-3.32 9.7-1.61 3.23-3.84 8.63-6.35 12.85-4 6.71-9.4 12-13 16.87-.23-.16-.39-.45-1 .24.14.24.58.35.19.79a9.23 9.23 0 0 1 -4 2.21 6.1 6.1 0 0 1 -.72 1.79c.62-.43 1.3-1.81 2-1.74-.57.62-.24.91-1.4 1.73-2.11.28-.85.21-3.14 1.64.58-.45.77-.79.77-1.07-1.16 1.65-4.12 2.8-5.28 4.27 2-1 2.4-1.6 4.06-2.39-1.67 1.49-2.15 1.7-3.52 3.09-.53 0 .67-1.2-.43-.56-1.19 1.76-5 2-6.78 4.09.62-.56 2.08-1 1.24-.36a10 10 0 0 1 -1.95.79c-.69 1.89-3.87 2.39-5.32 3.83a1.79 1.79 0 0 1 -1.42 0c-.3.88-3.6 2.62-4.38 2.92-.43-.41 1.61-.9 1.58-1.33a48.18 48.18 0 0 0 -6.15 3.91c-.84.4-.62-.29-1.33 0 .9.44-1.84 1.82-3.73 2.56-.09-.62-.31-.85 0-1.12a4 4 0 0 0 2.17-1c-1.19.11.86-1 .7-1.42.8-.21.89-.06.58.34 2.57-1.42 6.12-2.57 8.6-4.22.05.2-.46.66.25.46-.86-.28 1.17-.68.83-1-1.19.24.47-1.09 1-1.53-.27.44-.17.58.62.27.27-1.37 2.72-1.34 3.26-2.38 1-.26-.39.89 1 0l-.38-.59c1.21-.85 4.79-3.08 5.76-3.83.9-.52-1.45-.06.26-1 .25.81 3.51-2.87 4.57-2.17 2.69-2.89 4.5-3.13 6.49-6.05.34.09 2.28-1.29 2.34-1.92-.42.57-1.62 1-.87.34 5.22-3.74 10.73-10.76 15-16.79a1.47 1.47 0 0 1 -.82.59l1-1.57c.22.1.22.38.21.67.49-1.64 2.7-3.26 3-4.41-.87 1.11.2-.77.48-.84-.29-.51-.3-.23 0-1.6-.33.67-.79 1.6-1.07 1.63 1.35-3.9 4.56-9.2 6.05-13.54.2-1.57-1.12 1.43-.85-.24 1.18-1.27.26-3.93 1.26-4.33.36.52-1.11 5.07.23 3.18.21-2.47-.47-4.29.92-7.06-1.75.15.18-6.41-.48-8.61a14.17 14.17 0 0 0 .69-6.41c-.34 3.57-.89 6.58-2.08 7.78.07-.56.2-1.37 0-1.45-.59 2.69.57 1.78-.06 4.39.66.13.68-2.81 1.3-2.84-.43 3.93-1 7.51-2.1 10.16.54-1.5-.4-.78 0-2 .29-.39 1.12-2.61.79-2.84-.82-.85-.45-6.26.44-9.28-.92-1.45.24-4.25.19-4.84-.14 1.3-.65-.38-.73-.91.82 0 .37-4.89-.27-2.36-.1-1.94.31-2.38.58-2.44a16.46 16.46 0 0 0 -1.68-4c.44 0 .67.78.63-.58-.4-1.06-.39-.22-.66-.82 0-.36.07-.56.28-.52-1.41-1.44-.42-5.54-1.24-6.23.11.54.19 1-.13 1-.4-2-.94-4.11-.54-5-.93-.4-.18-1.51-.79-3-1.32-.46-3.76-6.57-2.86-6.57-1-1.23-1.89-2-2.2-4-1.06-.14 1.1 2.82.88 3.6-.9-1.12-2-4.46-3-5.32-.06-1.16-.14-2 .42-2.19-.64-.94-1.16-.8-1.76-1.33.21.39.6 1 .45 1.13-1.27-1-2.61-3.58-1.65-4.08.36.91 1.34.67 1 .28-.92 0-2.15-2.39-3.1-2.57.72 1.51 1.06.69 1.75 2.06-.2.73-.81.08-.47 1.24a16.13 16.13 0 0 0 -2.84-4c.29-.2.75.7 1 .2-.63-1.24-.89-.25-1.41-.8-.22-.67-.75-1.51-.49-1.92-2.54-1.89-3.43-3.86-6-6.89-.9.14 1.32 1.54.92 1.92-3.15-2.33-5.57-5.41-8.68-7.49.23-.12.57.19.82.11-1.91-.92-2.28-2.55-3.21-2.33-2.67-4.12-10.7-10.49-13.26-13.89-1.9-1.52-5-2.68-5.55-4.69-1.41-.19-3.38-2.66-4.57-2.82.37.32-.13.27-.46.11-3.6-3.54-6.54-3.56-11-7.18-.33.85 3.48 2 2.31 2.8 2.51 1.81 2.93 2.82 5.24 4.47-.31-.19-.7-.53-.86-.4.18.18.5.37.41.51-1.1-.91-2-1.33-2.56-1.18 1.87 1.17 4.34 2.71 5.56 4.44-.9.26-3.67-2.76-4.2-2.6 1.35 1.39 2.53 2.68 4.21 4.16-1.11-.16.69.61.08.94-1.35-.46-1.69-1.27-2.55-1.69.33.17.56 1-.05.6-.65-.76-.81-.62-1.74-1.24.1-.22 1.31.29.65-.4-1.23-.33-3.47-1-3.68-2.19-.24.24.07.52-.14.76a4.14 4.14 0 0 0 -1.61-.88l.29-.44a9.53 9.53 0 0 0 -3.69-1c-.73-.73-3.67-2.93-4.45-2.61 1.2 1.06 3.55 1.46 3.82 3 3.47 2.17 7.18 5.26 9.43 6.53 1.44.83 3 2.66 4.22 3.43s3.22 1.84 3.32 3.11c-.48-.88-1.76-1.07-2.23-2.05-.68-.21 0 .57-.56.23-11.1-10.12-26.65-15.85-41.45-23.11-.53 1.53-4.52-1-5.85-1.86-1.07.64-2.56-1.07-3.11-.43.57.64 2.73 1 2.62 1.75-.27.23 0 1.1-.65.88-3.51-1-5.07-3.09-7-2.88 1.86.57 2.89 2.3 5.62 3.28-.41-.13-.88 1.2-.3.83.12-1.25 1.38.3 2.27-.08a1.37 1.37 0 0 1 1 1.53c-1.09.35-3.35-.65-4.58-.44-.2.71.63 1.32 1.69 1.39 3.67 2.86 11.18 4.46 15.29 7.18.51.27.11.59.86.85 2.36 1 6.44 2.3 7.94 4.67a24.27 24.27 0 0 1 4.39 2.72c.34-.34.93-.17 1.73.49-.58 0-.1.21-.37.6a5 5 0 0 0 -1.87-.79c.18.39 1.27.82.59 1.21-1.61-1-2.57-.7-4.08-1.5.43.35.18.7 1 1 1.56-.24 4 1.47 5.28.68.46.48.38 1.35-.19 1.35 1.32 2 4.5 3.13 5.91 5-.37.54-1.22-.09-1.75 0 1.6 1.26-.51.2-.73.55 1.56.39 3.64 2 5.39 3.1 9.89 10.13 23.25 19.79 30.54 31.91a59.62 59.62 0 0 1 6.62 9.5c1.53 1.29 3.38 4.51 3.37 6.24.86.74 2.18 5.22 2.53 6.74-.46-1.91-.2.16-.43.43-.69-2.53-.84-4.42-1.95-4.61a2.6 2.6 0 0 1 0-1c.12.21.21.57.37.52-.43-2-.94.77-1.56-.74.8-.54-.87-1.94.38-2.1.4.88 0 1.33.67 1.38a26.21 26.21 0 0 0 -2.84-6.13c-.17 1.21 1.59 3 1.79 4.23-.1.39-.49.53-.61.91.13 1.64 1.16 2.84.64 3.92-1.92-3.64-.5-3.33-1.53-5.78.07.16 0 .38-.16.07-.94-1.7-1-2.72-2.06-4.06-.09-.7-.09-3.08-1.27-2.36.68.94 1.41 2.2.94 2.87.78 2.4 2.69 3.36 2.59 5a3.39 3.39 0 0 0 -1.81-2.09c.38 1.2 1.11.65 1.38 1.94-.24.05-.45-.39-.66-.3.73 1.06 1.89 3.46 1.28 4.17a48.42 48.42 0 0 0 -2.92-5.72c.23-.08.58-.34.2-.41l-.32.14c.41 2.69 2 3.18 1.5 5.3-.34-1.25-1.26-2.17-1.16-3.21-1.12-.09-2.28-2.62-2.84-4 .67 4 3.58 6 4.9 9.38-.5.41-1.23-1.71-1.43-.44 2.09 3.47 1.64 9.09 1.66 12.57a83.21 83.21 0 0 1 -1.74-8.76c-.16-.85-.32.8-.58-.14.15-2.34-1.79-6.54-3.61-9.41.28 0 .4.17.48-.23-1.77-1-2.39-4.13-3.68-5.43.08.19.28.45.14.55a29.77 29.77 0 0 0 -8.24-10.24l.54-.45c-3.19-2.81-7.9-6.77-10.7-10.74-.23.32-.54.25-.95-.17-8.19-8.49-20-15.27-28.89-21.43.35.24.8.47.5.73-3.72-3.5-7.73-5.34-11.81-7.38-.4-.5-.4-1.05-.73-1.57-.33.68.18.55-.06 1.35-1.48-1.66-4.17-2.83-6.35-3.45l.21-.49a8 8 0 0 1 -5.06-1.78c.28.15.17.37 0 .59-1.33-.37-2.44-.68-2.36-1.28a2.2 2.2 0 0 1 -1.82-1.25c-1-.21-.25.82-.84.81-9.13-4.19-23.12-7.07-33.69-5 8.7-.84 17.54.73 26.69 2.65-.18.47 1.72.24 1.13.85 5.09.88 10.81 4.64 15.58 5.86 0 .2-.24.43 0 .59.07-.7.78-.38 1.31-.34.18.94 2.25 1.06 3 2.4.69-.57 3.2 1.68 3.7 2.11.34-.09.52-.47 1-.26-.17.65 1.19.53 1.39 1.35 1-.3 2 .82 3.26 1.26-.33 1 1.35 1.34 2.49 2.08.63.1-.06-.54.5-.31 5.57 3.92 11.27 7.29 16.73 12.42-.19-.1-.42-.32-.53-.19.57.61.7-.07 1.27.53-.31.37.13.57-.43.56 1.2.52 2.24 1.89 3.19 2.82.58-.23 0-.59 0-.88.45.46.65.12 1.14.71-.22.27-.7-.29-.85.21.81 1 1.06.1 1.85 1.09-.66.54.89 1 1.15 1.94.82-.15.91-.08 1.08-.46.44.6.77 1 1.33.92l-.35.4c.49.22 2.49 1.18 2.15 2-.72-.94-2.13-1.05-2.75-2.51-.82 1.1 4 3.34 3.78 4.91-4.4-3.87-7.59-7-12.28-10.88-.26.17 0 .6-.32.42-.31-.36-1.36-.77-1.16-1.1.51-.16.62 1 1.06.36a27.66 27.66 0 0 0 -3.69-2.59c.41.33 1.07 1.42.12 1.19-3.24-3.48-8.28-6.23-11.75-8.49a182.85 182.85 0 0 0 -16-9.79l.15-.31c-2.54-.36-4-2.26-6.2-2.19-.61-.44-1.21-.88-1.13-1.44-.47-.06-1.37-.74-1.54-.39 1.1.35 1.59.82 1.4 1.47a59.24 59.24 0 0 1 -6.48-2.74c-2.49-.18-5.91-1.74-8.11-1.64 1.29.9 4.91.58 4.65 2.37-1.43-.89-2.93 0-4.43-1-.09.61-.63.43-1.55 0-1.42 1.17-4.83-1.09-6.93-.37a6.82 6.82 0 0 0 -2.07-1.18c-.2.54.85.36.17.73.41.17 1.44 0 1.42.38a56.15 56.15 0 0 0 -13 .63c.21 1.58-2.3.57-2.89 1.16 1.1.64-1.71.42-2.42.71a11.23 11.23 0 0 0 -4.21 2.45c1.13.42 1.64-1.14 3-1 .06.41.05.78-.28 1-.26-.27-1.22.38-.88.87a3.38 3.38 0 0 1 2.42-.43c-.94.8-1.8 2.2-3.22 1.76-.41 1-1.64 1.22-2.71 2.23.74.64-.72 1.18-1.48 1.92-.14 1.1.71 1-.12 1.84.54 0 .45-.56.85-.41.18 1 .81 1.32-.48 2.46-.15-.2-.07-.35-.19-.56a2 2 0 0 0 -.37 1.54c-.57 0-.12.31-.2.6s-.95.55-.15 1.17c.47.06-.1-.61.84-.09.22.44-.52 0 0 .41.35.17.22-.72 1-.15l-.23.26c.44.32.59.1.92.56 0-.1.31 0 0-.3 0 .11-.21 0-.5-.21a1.38 1.38 0 0 1 .61-.46c.23 1.19.15 1.58-.1 1.57.3.17.66.34.83.43-.11 0 .11 0-.36-.2 0-.07.4.14.69.3.66.43-.26-.09 0 .05.15-.05.38.09.84.28zm125-15.58c.6-.27 1 .66 1.23 1.15-.34.25-1.14-.93-1.22-1.15zm35.66 50.1c.27.59 1.17 2.38 1.75 4-.2-.22-.4-.42-.63-.32a5 5 0 0 0 -1.15-2.66c-.09-.51.26-.43.03-1.02zm-94.19 125.93c0-.3-.38-.42-.92-.45 0-.38 1-.46 2.08-.56-.69.44.37.31-.33.75.81 0 2.53-.54 2.18.1a11.44 11.44 0 0 0 -3.01.16zm-40.11-169c-.11-.44.66 0 1.29-.54l.22.48a4.05 4.05 0 0 1 -1.35.38c.14-.21.25-.44-.16-.31zm35.37 59.48c.24.23.22-.72.13.14.12.22-.04.75-.13-.13zm26.31 12.17c0 .31.1.6-.38.82-.14-.49 0-.67.38-.81zm-89-63.63c-.3-.18-.19-.15-.6-.4-.06-.12.21.09.23-.07.16.13.06.14 0 .18a1 1 0 0 0 .33.18c.29.25.24.21.07.12zm-1.53-6.74c-.1-.36.22-.65.6-.93.24.46-.13.77-.27 1.12-.1-.19-.18-.25-.33-.19zm5.27-8.64c.08-.42 1.56-1.41 1.66-.53-.78.06-.78.25-1.66.51zm20.77 17.08c-.64-.43 1.62-.43 1.26.28-.29-.17-.97-.46-1.26-.3zm4.55 2.07c-.07-.4 1.06 0 .53-.38.2-.18 2 .18 1.65.72a4.69 4.69 0 0 0 -2.18-.36zm72.67-25.88c.34-.42 1.88.92 2.1 1.39-.76.2-1.74-1.09-2.1-1.41zm-10.22 32.56c.4-.63 1 .65 1.31.92-.31.34-1.2-.53-1.31-.94zm21.59 22.19c-.42.61-.91-1.05-1.33-1-.09.29.47.52.61 1.17 3.07 1.1 4.75 6.09 6.48 9.37 1.4 2.68 3 5 3.51 7.25-.13.22 0 .63-.38.66.68.73.36 1.9.76 3-.51.46-.44-.2-.16 1.07-.4-.4-.43.06-.86.17-.22-.63.3-.55.39-.85-.35-.29-.66-.71-1.1-.78 0-.5.38-.68.43-1.14-.17-.49-.58-.36-.75-.83-.44.63.51 2.28-.12 3.09-.4-1.15.07-1.55-.33-2.71a13.39 13.39 0 0 0 0 2.27c1 1.91 2.55 1.37 3.11 3.76.4-.2.24-1 .29-1.61 1.22 1.8.21 3.83 1.17 5.14-.16.36-.11 1-.48 1.06.08.72.71 2.38.05 2.61 0 .5.57.22.49.83-1.27 1.61-.25 5.37-1.6 7 .55 1.49-.81 4.46-1.42 5.38.73 1.84-2.1 6.17-3.88 7.3-1.12 1.73-.6 1.83-1.73 3.39.4-.42 1.5-1 1.38-1.35.5.38-.25 1.47-1.54 2.94 0 0 0-.36.21-.54-1.81 2-4.41 7.48-8.29 7.93a6.33 6.33 0 0 0 1.75-2.09c-.26.65-3.07 2.08-2.69 3.09a1.31 1.31 0 0 1 -1.4.45c-.19-.38-.39-.75.39-1.22-.19-.39-.89.84-1 .1 1.33-1.08 2.4-1.41 3.66-2.69-.71.12-1.56.84-3 1.89a55.39 55.39 0 0 1 7-7.86c-.63-.48-1.43.84-2.11.56 2-1.8 2.37-3.86 3.63-5.15l.29.2c.38.11.07.48-.14.82a.62.62 0 0 0 0-1.22 18.55 18.55 0 0 1 1.1-2c.32.23 0 .74-.38 1.23 1.11-.19 1.14-2.26 1.46-3.46.19-.88.6.15.84-.4.21-1 2.11-5.86 3-6.79-.06-.69-.16-.85-.72-.72.1-.87.39-1.3.86-1.28-.58-1.1.41-2.37.88-3.55.11-.86-.65.43-.49-.32s.17-.27.39-.19c.11-.9-.57-.79-.31-2a2.86 2.86 0 0 0 1.56.36c0-.55-.74-.16-1-.32-.12-1.05.54-.92.61-1.69-.81.31-1.84-1.25-.67-2 .21.83-.2 1-.36 1.45.44 0 .57-.46.88 0-.4-1.18-.07-1.26.13-2.46-.42-.09-1-.63-1.58.08.21-.76.34-1.7.56-2.45.48 0 .4.78.44 1.42.07.43.63-.41.85-.57-.12-.55-.25.33-.53-.2a3.78 3.78 0 0 0 0-1.73c.28-.46.22 0 .7-.1-.76-1.5-1.84-.57-1.93-2.18a.71.71 0 0 0 -.24.78c-1.82-2.28-1-6.58-2.85-8.24.09-.88.46-.46-.28-1.26.64-.82 1.37.12 2 .85-.3.23-.49 0-.73 0 .22 1.21.28 3.17 1.46 4.47-.56-2.11-.53-3.65-1.06-5.44.59 0 .49 0 .71-.61-.51-.71-.67 1-1.24.24.29-.53-1.12-1.73-1-3.07-.23-.28-.27.12-.2.38-.57-.16 0-1-.52-1.71a2 2 0 0 0 0 .83c-.54.1-.11-.55-.48-.88-.14.09 0 .33.09.52-.45.14-.75-1-1.17-1.05.14-.52.13-1.58-.73-1.61a30.19 30.19 0 0 0 -5.36-9.13l.41-.33c-2.07-1.56-3.28-3.55-5-5.37 2.22.51 3.64 3.57 5.5 5.67 1.05 1.26 2.42 1.83 3.11 3.35zm-14.11-14.62c2.2.29 3.87 3.65 5.89 5.34-1.93-.56-4.33-3.95-5.89-5.36zm-12.62 28.8c.95 0 1 .87 1.91 1.57-.66-.13-1.76-.72-1.91-1.59zm36.59 5.72c.43-.19.66.21.76.89l-.52.11zm-35.32 8c.49 0 .06.31.13.41-.45-.09-.22-.36-.15-.47zm33.58-4.79c.11.71-.89.72-1.18.44.03-.93.67-.35 1.18-.5zm-.06.75c.21 0 .21.42.28.71-.52-.14-.39.39-.83.35-.09-.69.39-.73.55-1.12zm-30.28 4c.45 0 .6.32-.15.33-.11-.17.22-.21.15-.36zm-1.82 1.29c0 .08-.38.1 0 .2-.25-.01-1.03-.34 0-.23zm38.15 3.3c.61.18.2 1.38 0 2-.65-.39.04-1.19 0-2.03zm-39.72-3.37c.7.09 0 .14.5.25 0 .07-.78-.18-.69-.1-.12-.1.08-.13.19-.18zm71.48 14.66c.35.2.09 1.38.4 1.58-.26.75-.65.31-.83 1.87-.49-.2.23-2.09.43-3.48zm-1.48 4.74a23.75 23.75 0 0 1 -1.72 6.13c-.38-.93 1.31-4.5 1.72-6.16zm3.89 2.47c-.69 1.21-.67 2.87-1.23 3.41-.66.12.86-4.36 1.23-3.44zm-3.89-.43c.35.37.18 2-.55 2.91a6.21 6.21 0 0 1 .55-2.94zm-2.74 7.35a6.43 6.43 0 0 1 -1.24 3.65c-.39-.07.64-1.57.84-2.25-.32-.21-.78 1.52-1.17 2.12.05-1.43.82-2.02 1.57-3.55zm-6.36 14.35c.5.82-2.15 3.06-2.34 4 .04-1.28 1.46-2.24 2.34-4.03zm-1.64 1.15c0 .61-1.86 3-2.37 3.36-.45-.09 1.29-1.64.36-1.41a16.42 16.42 0 0 0 2.01-1.98zm-28.82-18a17.41 17.41 0 0 1 -2.86 5.22c-.17-.3.85-1 0-1.08a29.07 29.07 0 0 0 2.86-4.13zm27.56 21c-.3.95-2.16 4.39-3.65 4.59 1.35-.98 2.55-3.04 3.65-4.6zm-2.51 1c.24.39-.31 1.66-1 2a2.67 2.67 0 0 1 1-2.03zm-.84 2.14a34.71 34.71 0 0 1 -4.24 5.06c-.06-1.22 3.12-3.07 2.27-3.79a6.63 6.63 0 0 1 1.27-1.25c-.34.64-.48 1.57.7-.05zm-57.28-44c.49.35-.08.44-.17.65-.47-.42-.15-.76.17-.67zm49.76 51.86c-2.15 2.52-5.56 5.19-9.21 8.51.73.41 1.48-1.37 2.51-1.53.25.52-1.7 1.76-2.74 2.55-1.06 0-.06-1-1-1.24 4.09-2.92 6.44-5.53 10.44-8.29zm-29.58-22.2c.5.67-.81 1.6-1.91 2.35-.36-.82 1.12-1.71 1.91-2.35zm-1.94 3.22c.5.73-3.49 2.5-.78.78a2.2 2.2 0 0 1 .78-.78zm17.52 31.29c.67.38-1.48 1.2-2.18 1.79.18-.74.78-.72 2.18-1.79zm-3 1.26c.14.46-.57 1.05-1.33 1.64a.63.63 0 0 0 0-.8zm-7.35 6.39c0 .21-1.06 1.17-1.35.86-.34.17-.18.32-.2.48-1.11.36-.52 0-.68-.45 1.02-.6 1.18-.23 2.21-.89zm-3.65 1.56c-.16.25-.3.49.15.32.23.32-1.24.67-1.72 1 .17-.43.37-.86 1.57-1.32zm-8.12 5.17c-.11.68-1.53.49-2.5 1.25-.58-.52 1.62-.83 2.47-1.25zm1.08 5.95c-1.59.35-3.18.68-3.24-.36.94.22 2.68-.27 3.21.36zm-2.64-4.47c-.45.45-2.35 1.42-.13.79-.25.88-2.39.91-3.75 1.47 1.06-.99 1.8-1.18 3.85-2.26zm-27.22-72.39c-.15.41.22.3.07.71a3.88 3.88 0 0 0 -2.15.28c.15-.7 1.36-.69 2.08-.99zm25.9 76.93c.73.57-3 1.78-2.74.89 1.43-.26 1.74-.98 2.74-.89zm-2.2-3.7c.17.54-2.36 1.17-3 1.1.82-.6 1.46-.39 2.96-1.1zm-26.08-72.33c.3.59-.7.49-.84.37a.56.56 0 0 1 .8-.37zm20.46 75.82c.24.48-1.21 1-1.86.86a3.8 3.8 0 0 1 1.82-.86zm-7.57 3.24c-2.74.38-4.8 1.5-6.88 1.53-.39-.49.63-.6.23-1.09.68.22 2.78-.5 2.57.29.47-.73 2.59-.5 4.04-.73zm-.86 0c-.75-.17-.54-1 1-1.09-1 1.29 1.76-.48 2.21.41a32.29 32.29 0 0 0 -3.25.66zm-3.86 4.06c-1 .7-1.6.41-2.95.43 1.06-.67 1.58-.37 2.91-.45zm-21.55-84c0 .28-.13.28-.16.51-.35 0-.42-.37-.85-.27a.58.58 0 0 1 .97-.24zm-9.81 81.29c-1.11.49-2.81-.43-3.65.25-2.28-.4-3.14-1-5-.85l.13-.87c2.44.76 5.68.79 8.48 1.47zm8-81.33c-.29-.35-.46-.06-.72-.31.11-.57.84-.32.68.31zm-17.1 80.29c-1.61.64-5.34-.33-6.91-1.45-2 .33-3.86.47-7.17-1.51 1.35 0 4.47 1.7 5.45.49 3.78 1.38 6.94 1.82 8.63 2.47zm-.52-2.43c-.09.5-2.59-.09-3.16-.53.38-.39 1.38-.34 2.82-.08-.09.24-.17.47.34.61zm-3.91-1.28c-.45.55-1.79-.51-3.64-.8.14-.29-.45-.52-.27-.81a35.58 35.58 0 0 1 3.91 1.61zm20-81c-.2.26-.33.22-.41.07.27-.67.16-.03.41-.11zm-25.76 84.57c-.16.39-2-.57-2.91-.77 1.13 0 0-.4-1.32-.83.75-.53 2.86 1.11 4.21 1.56zm-1.65-3.31-.15.51-2.34-.86c-.01-.56 1.62.2 2.47.31zm27.09-81.7c-.51.16-.33.27-.48.17.25-.39.18-.71.46-.21zm-1.26 2.33c-.13.31-.1-.21-.13-.26.31-.66.18-.07.11.22zm-.62.5c-.2.39-.29.3-.47.21.24-.51.5-.53.45-.25zm-.34-.73c.06.07 0 .18-.08.16-.23.4.2.27-.11.74-.14-.16-.3.2-.43 0 0-.15.08-.3 0-.38.23-.47.39-.16.6-.56zm-39.77 76.55c0-.22-.73-.55-1.23-.86-.27-.51 1.55.17.31-.63.54 0 1.5 1.45 1.8 1.95-1.57-.76-1.29-.12-2.7-1.23.24-.14 1.13.47 1.82.77zm41.14-80.2c-.26.55-.74.5-.3-.17.2-.13.35-.03.3.17zm-1.91 3.17c-.24.51-.43.31-.67.63a1.07 1.07 0 0 1 .2-.71.43.43 0 0 1 .47.08zm-45.73 71.73c-.28 0-.55 0-.66.2-.42-.34-.84-.9-.22-.56-.16-.31-.81-.72-.51-.95.29.32.59.63.78.5.42.31.09.47.61.81zm-3.12-1.16c.12-.74.06-.83 1-.8.44.68.65 1.84-1 .8zm47.87-73.5c-.14.15-.17.26-.13.34-.4.16.07-.41-.5-.34.21-.22.14-.31.05-.39.43-.24-.01.61.58.39zm-50.71 64.12c-3.14-1.24-8.77-6.68-11.1-8.59 1.58.13 7.42 6.13 11.1 8.59zm-4.4-2-.33.42a8.43 8.43 0 0 1 -1.86-1.81c.36-.31 1.36.67 2.19 1.4zm-2.63-1.54-.33.41c-.6-.59-1.33-1.31-.94-1.56zm-3.42.68c-.19.09-.39-.23-.32-.3-1.63-.45.06-.59-1-1.48.26-.08.89.65 1.39 1.08-.23.17-.43.33-.07.71zm-3.32-8.51c-.49.36-1.83-1.52-2.69-2.18.97-.11 1.52 1.42 2.69 2.19zm63.22-62.8c-.25.08-.53 0-.3-.2s.18.17.3.21zm-86.32 3c1.17-4.59 1.86-1.5 2 4.75a12.62 12.62 0 0 0 .21-2.73c.53-.32.25 2.44.66 2.61 0 .71-.39.49-.64.61a94.05 94.05 0 0 0 2.15 10.47c-.49.83.62 2.43.21 3.56.51 1.25 0-1.57.67-.22.79 3.39.34 3.1 1.81 6.45.48-.11-1.27-2.82-.33-2.41a15.88 15.88 0 0 0 2.16 5.18c-.31.3-.64.23-1-.05.44 1.13.84 1.26 1.2.94a5.52 5.52 0 0 1 .91 3.59c-2.32-1.46-4.28-9.86-6-12.77-1.21-5.81-2.44-11.2-2.58-17.91-.33.11 0 1.85-.25 2.21-.56 0-.5-3.31 0-3.28-.32-1.48-.47-1.6-1.18-.98zm89.64-5.52c-.35.16-.49.31-.27.27s.34-.22.27-.27zm1.19-.36c-.64.22-.59.37 0 .13zm-12.19 4.59c-.3 0-.59-.27.34-.49-.34.28-.25.35-.34.49zm10.7-4c-.85.3.3.57 0 1a3.2 3.2 0 0 1 1-.41c0-.3-.88-.4-.52-.6-.18.07-.6.2-.46.07zm-80.67 29.08c-.49-.17-1-2.41-1.41-3.41 1.11.56.83 1.66 1.43 3.47zm74.12-26.86-.66.21c-.1 0 .49-.12.37-.05.46-.06.35-.08.31-.1zm-1.48.46-.51.15c-.38.1.11 0 .27 0 .49-.11-.05.01.26-.09zm-.41.15c-.36.32.49.29.08 1a9.43 9.43 0 0 1 1.06-.08c-.63-.37-1-.67-.2-.79 0-.06-.3 0-.7 0 .13-.11.25-.08.69-.14-.09-.02-.75.11-.91.07zm-73.56 16.32c-.74.23-.31-1.36-.76-2.78a5.55 5.55 0 0 1 .78 2.84zm3.94-5.7c-1.83-4.82-1.21-13.59-.33-19 0-1.25-.82.3-.86 1.39-.42-.52.24-2.13.39-2.89.33 0 .26.6.61.54s.54-2.21.86-3.13c.28 6.24-1.67 13.23-.22 22.51-.23.13-.48.13-.43.64zm-10.17.93c-.37-.47-.51-2.2-.78-3.1.32 0 .29-.69.63-.62.46 2.11-.32 1.72.17 3.78zm80.75-10.38c-.65 0-.76.2-.75.51.31 0 .37-.07.7 0-.45-.28.09-.33.05-.51zm-79.63-1.5c-.41-.16-.66-.84-1.23-.52.26-3.07.81-4.42 1.52-7.75.58 1.87-.52 4.93-.29 8.25zm-.79-17.13-.62 2.64c1.07-9.08 5.61-19.51 11.23-27 .24-.44-.13-.44.21-.95a21.17 21.17 0 0 1 1.86-2.09c.4.38-1 2-1.77 3.22.2.16.39.31.71-.11-2.16 3.9-6.66 11.16-8.14 18.68a28.76 28.76 0 0 1 -2.09 3.72c-.25 1.55.63-.18.85.21-.21 1.33-1.27 2.22-.94 3-.51 1.48-.4.54-.81.39-.33 2.73-.61 4.54-.92 6.42.52.62.47-1.74.8-2.67a24.66 24.66 0 0 1 -.91 7.2c-.71.41-.92-2.72-1.28.53-.51-2.66 1.62-8.94 1.25-10-1.53 3.7-1.44 12-2.5 14.05-.6-6.18 1.08-11.5 2.38-17.39zm4.35 15.49c-.47 0-.76-1.21-.37-2.1.48-.17.36 1.08.37 2.08zm-.58-5.31c.12.12.11.54.29.55.83-6.65 1-7.05 2-12.54 2.28-1.37-1.18 9.35-1 12.62-.63 2.13-1.39 2.54-1.29-.65zm-2.21-3.47c-.34-.4-.12-1.76-.45-2.17.66-.61 1-4.41 1.77-4.47-1.06 2.1-.41 4.07-1.32 6.62zm12.64-15.64c.17.06.33-.47.52-.75.17.17-.46 1.25-.2 1.36.51-.34 1.2-2.44 1.85-3.4-.18 1.8-2.08 5.89-2.15 7.52-.6.51-1 0-1-.34-.71.19-.38.92-1 1.56-.22 1.23.84-1.2 1.15-.57-1.21 3.14-1.56 3.92-1.41 5.64-.6 1.36-.28-.13-.82 2.64-1.25 0 .43-2.93.3-4.18-1.13 1.34-.76 6-1.92 5.77 1.26-5.69 2.41-13 6.3-17.82-.07.98-1.09.99-1.62 2.57zm-10.1 9.24c-.48 1.74-.33-1.4-.81.35-.4-.61.5-1.68.68-2 .41-.03-.2 1.52.11 1.65zm-.17-2.17c.57-3.76 4.09-11.28 4.07-9.06-1.62 2.05-2.23 5.3-4.09 9.06zm16-2.95c-.29.57-.16-.44-.47.26-.47-1.08 1.27-3.23 2-4.36.53.77-1.82 3.07-1.56 4.1zm1.66-3.6.91-1.72c0 .28.06.55.31.15.19.19-.49 1.05-.23 1.18-.38.58-.71.65-1.02.43zm-13.67-4.13c1-2.92 4.57-9.05 7.3-13.29-.65 3.13-4.19 7.11-6.14 11.75-.29-.62-.8.78-1.19 1.54zm20.6-5c.75-.5 1.56-2.77 2.58-2.65a6.39 6.39 0 0 1 1.32-2.13c.42.08 1.1-.42.92.28-.48.65-.65 0-1.1.49-.49.66-.15.92.42.32-2.11 2.88-3 4.57-5.12 7 .32-.75.32-1.79 1.15-2.3-.89-.62-1.37 1.17-1.6 2-.23 0-1.38.8-1 .25-.51-.25 1-1.53 1.37-2.65-1 .59-2.35 3.53-2.82 4 .5 0 1.16-.24.4 1.09-1-.79-2.1.81-3.24 2.68a.64.64 0 0 0 -.46-.65c2.4-3.59 6.13-11.47 10.11-15.16.28.17 0 .58.31.73.69-1 .32-1.41 1.13-2.41l.53.46c.45-.47.33-.75.84-1.19.49-.64-.51.12-.14-.61l1.27-1.27c.1.18.28.16.5 0a3.36 3.36 0 0 1 -1.11 2.36.72.72 0 0 1 .78.22c-.86.31-1.1 1.7-2 2a.82.82 0 0 0 .08 1 30.42 30.42 0 0 0 -5.15 6.12zm-13.22-10.91c.69 0 .05.89.22 1.23-1.62 2-1.87 2.55-3.44 4.73 2.05-1.84-2.45 5.29-3.22 5.74 1.39-4.5 5.44-8.82 6.44-11.7zm-1.62 1.08c-.28-.33 1.06-1.71 1.3-1.87.3.67-.78 1.44-1.3 1.87zm2.87-1.34c-.71-.09-.24-1.09.75-2.17.59 0-.25.86 0 1.08 2.56-2.34 4.42-5.32 6.17-5.42a17.65 17.65 0 0 0 -3.68 5.15 5 5 0 0 0 -1.49 1c.07-.74.44-1 1.2-1.74-.73-.06-1.78.44-2.95 2.13zm8.76-10.44c-.07-.51 1.7-1.92 1.72-1.21a5 5 0 0 1 -1 1.28c-.2-.17-.36-.36-.72-.04zm66.66 63.37c-.3-.68.37-.16.61-.34.3.35-.38.19-.06.54-.11.21-.47-.46-.55-.17zm1-3.46c.38-.49 1.2-.2 1.28-1.19.28-.23.57.59.85.28.23.24 0 .65.34.61a2.08 2.08 0 0 1 -.86 1.2 1.06 1.06 0 0 1 -.46-.75 2.13 2.13 0 0 1 -1.17-.12zm-42.77-74.08c-.17-.35 1.34-.89 1.85-1.31.2.41-1.35 1.26-1.85 1.31zm-.47-3.61c-.06-.42 1.61-1 2.25-1.54.32.95-1.09.67-2.3 1.54zm14.06-4.77c-1.17.16.54-.92 1.57-1.22.64.64-1.7.96-1.62 1.22zm34.29 69.6c.25-.29.71-.37.37-1 .72-.38 1.41 1.64 1 2.47-.5-.34-1.1-.34-1.42-1.47zm-5.05-59c-.25-.52.63-.66 1.62-.77 0 .32.47.31.44.65a5.46 5.46 0 0 1 -2.11.16zm8.78 56.28c.23-.84.34-.67.5-.91a12.19 12.19 0 0 1 .91-2.47c.2 0 .09.41.13.61a25.46 25.46 0 0 1 -1.1 2.6c-.14.14-.19-.19-.42.57zm11.25-32.92c.21-.33 1.2.32 1.31.51a1.14 1.14 0 0 1 -1 0c.14-.22-.1-.34-.36-.47zm-9.89 31.17c.08 0 0 .2.1.16-.17.46-.25.41-.41.8a3.65 3.65 0 0 1 .26-.92zm22.71-52.78c0-.72 2.83.68 2 1-.86.08-1.38-.54-2.05-.96zm11.68 9.87.58.41c-.38.43.18 1.16-1.08.31.44-.3-.28-.79.45-.68z"/><path d="m226.91 190.3c.4 0 .36-.49.17-.76.72.39-.19-.2.35 0s-.42.52.23 1.18c.21.1.18-.06.25-.12.38.14-.16.49-.64.14.09-.16.21-.2-.36-.44z"/><path d="m292.39 241.41c-.58.82 0 .78-.93 1.77-1.59 1.47-3.33 3.53-3.83 5.15-.75.67-.89.57-.72 0-3.4 4.54-6.7 7-9.76 10.89.47-1.22-3.77 2.51-2.37 2.15-5.17 3.58-12.79 8.76-16.9 12.21 1.75-1.18 5.47-2.67 6.61-4.28-.43 1.18 1.72-.92 1.76-1.31l.31.43c15.92-10.15 32.41-28.34 40.06-48.31.36-2.26 3.47-9.46 2.63-12.12a18.44 18.44 0 0 0 1.52-7.23c.8 1.39.59-3.45 1.27-2.76-.12-2.64.86-5.67.27-6.85-.34 3.51 0 5.82-1 6.8.52-3.3.19-6.85 1.05-9.08-.27-2.59-1.1-7.39-.66-9.49-.83-.15-.21-2.93-.94-4.25-.32-.15-.32.88-.51.1-.66-2-.36-4.75-1.17-6.27.13.62.23 1.21-.1 1.1-.49-1.51-.06-1.56-.56-3.07-.6 0 .25 2.26.22 3.16.87.82 1.78 7 1.46 7.84-.54-1.78-1-2.29-.79-4.22-.52-.27-.18 1.13-.52 1.2.26 1.75.83 1.7 1 3.6-.51-.27-.86-1.4-1.33-1.92.21 1.89.88 1.3 1.12 3-.26.55-.78-1.49-.7.1.64 1 0 2.85-.09 3.8 1-.47 0 2.7.68 3.75-.28-1.65.38-3.13.65-1.68-.59 1.31-.05 2.28-.47 4.42-.18 0-.23.45-.38.56.08-2.57-.89-2.15-.15-.55a75.45 75.45 0 0 1 -1.24 9.29 8.2 8.2 0 0 1 .57-1.61c-.4 3.32-1 2.65-.29 3.3-.33 2.31-1.09 1.82-1.58 3.12.75-.42-.31 2.44.26 2.26.36-1 .37-3.3.88-2.65-.75 3.54-1 3.9-1.44 7-.29-.19-.54.51-.83.37.67-1.52 1.25-3.8.74-4.3a17.48 17.48 0 0 0 -1 6.5c-1 1.13-1.25 3.12-.9 3.12-.8 1.39-.84.41-1-.31-.92 3-1.22 4-2.66 5.82.27-.69-.11-.68-.06-1.14a6.75 6.75 0 0 1 -1.9 3.7c-.15 1.94-3 8-5.42 10.3-.52 1.92-1.7 3.5-4.31 7.13.21 1 1.81-2.24 2.22-2 .14.89-1.59 3.78-3 4.39-.45-.1 1.47-1.64.5-1.44-3.08 4.64 2.02.42 3.73-1.49zm17.71-53h.52c.2 1.73-.3 1.36-.4 2.23-.22-.18-.07-1.41-.12-2.22zm-.86 4.43c.46 1.83 1.22 4.37 0 7.21l-.7-.06c0-1 .84-2.24.37-2.75.32-1.81.31.64.46.59.63-1.36-.59-2.21-.13-4.98zm-5.24 25.82c.08 1.35-1.74 5.6-2.68 5.86.97-1.85 1.92-4.7 2.68-5.86zm-2.34 2.6c.19.69-.84 2.7-1.67 4.42-.26-.97.69-2.68 1.65-4.42zm-.79 4.22a10.19 10.19 0 0 1 -1.08 3c-.79.14.46-2.37 1.06-3zm-2.21 1.33c.49 0 .23.93-.49 2.06-.52-.1-.17-.87.47-2.06zm.56 2c.56 1.41-3.49 5.73-3.47 4.58a16.4 16.4 0 0 0 3.45-4.59zm-1.71 4.37c.54-.6-1 2-2 3.58-.34-.87 1.12-2.68 1.98-3.59zm-2.74.82c.68-.24-.09 1.75.91.53-1.33 2-1.74 2.3-4 5.18 0-1.17 1.32-3.18 3.07-5.71z"/><path d="m135.32 124.3c-.15-.16-.3-.91.33-.55-.29.17-.24.25-.33.55z"/><path d="m92.14 94.56c.08-.88 4.52-5.59 5.19-7 1.52-.9-4.4 5.69-5.19 7z"/><path d="m139.3 110c.23-.34.25-.75.94-1 .18.43.75.08.91.55a1.88 1.88 0 0 0 -1.85.45z"/><path d="m147.82 97c-1 .21-.78-.51-1.74-.24.15-.43 1.69-.5 1.44.09.33-.11.53-.28.47-.58 1.14.13.29.54-.17.73z"/><path d="m180.05 89.67c.15-.49.84-.45 1.41-.53 4.12 1.86-.28-.24-1.41.53z"/><path d="m182.88 85.16c-.43-.2.18-.18.14-.51.95.49 2 1 2.84 1.48-.86.36-2.03-1.37-2.98-.97z"/><path d="m198.28 57.83c-.44-.11-.41.21-.53.39-2.38-.71-3.64-2.42-6.13-2.54.07.41 2 .63 2.13 1-1.05 0-1.41-.67-3-.74-.19-.7.06-.44-.13-1.13 3.3.72 2.73.94 6.75 2.11-1.28.22 2 .93 1.69 1.12.08-.72 1.54-.07 2.13.78 1 .21-.36-.64.58-.53 1.08.83 4.14 1.29 3.36 1.84.42.13.61.28.64.43.92.17-.42-1 1.3-.24-1.38.08.66.77 1.11 1.23-2.11.19-6.49-2.27-9-2.72a4.93 4.93 0 0 1 -.9-1z"/><path d="m186.09 74.75c-.21-.51 2.3 1 3.5 1.32-1.14.18-2.49-.96-3.5-1.32z"/><path d="m186.93 88c.47-.18 1.51.81 2.57 1.08 0 .5-1.52-.72-1.55-.19-.34-.35-.44-.69-1.02-.89z"/><path d="m206.78 104.88a9.57 9.57 0 0 1 2.76 1.5 9.48 9.48 0 0 1 -2.76-1.5z"/><path d="m230.63 90.93c.47-.18 2 .71 2.62 1.26a20.37 20.37 0 0 1 -2.62-1.26z"/><path d="m241.29 92.3c.66 0 1.89 1.26 2.26.75.52.87-1.96-.05-2.26-.75z"/><path d="m252.85 88.49c.8-.29-.57-1.86-1.82-2.19.85-.29 3.44 1.92 5 2.43-1.14-.55-1.69 0-2.05-.68-.68-.46-.62.5-.14.78-.18.17-.84-.58-.99-.34z"/><path d="m208.57 160.49c1.89.57 3.46 3.44 5.44 3.55-.18.45.57.94.18 1.37-1.2-1.77-2.49-1.54-3.21-3.1-.92.06-1.79-1.31-2.41-1.82z"/><path d="m253.5 106.44c-.09.58.26.47.9 1 .74 1-1-.86-.83 0-.74-.55-1.38-1.09-.92-1.43.23.15.19.25.14.34a1.56 1.56 0 0 0 .83 0c.26.22.02.21-.12.09z"/><path d="m261.23 112.93c.42.49 1 1 .62 1.29-.94-1.13-1.39-.89-2.15-1.52-.11.13.2.37.36.58-1.84-.36-3.78-3.08-5.14-5 .3-.21.79.07 1.18.1-.44 1.11 3.96 3.93 5.13 4.55z"/><path d="m271.32 107.21c.6.56 1 .47 1.64 1.3h-1c4.41 3.13 8.92 10.08 13.71 13.86.41 2.2 3.52 3 3.36 4.72.25-.56.09-.44.68-.56-2.14-1.8-4.3-5.19-3.72-6-.59.77 1.2-.2 1.36 1.33.64.13-.13-1.18.53-.47a12.11 12.11 0 0 1 .56 2 18.2 18.2 0 0 0 1.73 1.64c-.12.18-.42.27-.16.65.57-.92 1.45 1.45 1.83 2.08.05-1-1.4-2.71-1.24-3.6-.67.09-.52-.53-1.36-1.46.12-.18.42-.27.15-.65-.33-.1-.82-1.58-1.85-1.93.44.68.32.8-.15.64-1-1.58-2.84-3-3.58-4.92-.84.54-1.4-.78-2.25-1.92-.23.14-.37.55-.75.22-.48-.58-.16-.86-.25-1.3.4.49 1.72 1.37 1.13.44-.39.32-1.62-2-2-1.63.57.55.7 1 .38 1.17-.29-1-.79-.32-1.63-1.44-.42.23-.8.56-1.36.38 0-1.26-1.63-1.16-2.5-2a4 4 0 0 1 -.43-2.66c-.89-.67-1-1-1.4-1.08.49.53.19.83.29 1.24a15.93 15.93 0 0 1 -3.83-3.58 2.1 2.1 0 0 1 -1.89-1c.48 1.19 4.02 3.26 4 4.53zm10 9.65c-.27-.33 0-.45.13-.63a4.66 4.66 0 0 1 1.37 1.22c-.17.93-1.36-1.52-1.51-.59z"/><path d="m215.29 165.47c.05-.55.51.92 1.11 1.28-.5.16-1.15-.45-1.74-.91.34.01 1.09.34.63-.37z"/><path d="m267.54 120.22c-.47-.46-.63 0-1.18-.68a2.18 2.18 0 0 0 -.36-1.54c.19-.08.55.38.72.22-.23 1 1.48 1.84.9 2.89-.21-.38-.3-.68-.08-.89z"/><path d="m268.24 120.93c.24-.58.66.28.47.47.33.35.64.69.82.6.45.72-.78.16-1.19-.22.33-.17.34-.44-.1-.85z"/><path d="m217.81 171.93c.18.13.21-.05.13-.13.61 0 1.24 1.35 1.86 1.47-.07.07-2.86-1-2.12-1.75.17.14.21.28.13.41z"/><path d="m219.42 174.14c-.49.12.1 1.25.16 1.81.34-.39 1.52 1.27 2.29 2.2-.71-.12-3.31-2.4-2.72-3.52-.61-.84-.77-.85-1.32-1.66 1.47.53 3.23 2.72 4 3.69-.62.12-1.76-1.87-2.41-2.52z"/><path d="m277.4 131.09c-.69-1.21.19-.08.53-.46l1.12 1.39c-.72-.34-.17.35-.32.74.68.91.85-.51 1.66 1-.18.4-.62-.38-.86-.23a6.27 6.27 0 0 1 2.43 3.14c-.75-.16-1-.94-1.32-1.72-.44 0-.95-.43-1.34-.3a3.76 3.76 0 0 0 -.75-1.24c.19-.09.52.42.8.74-.35-.55-1.25-3.15-1.95-3.06z"/><path d="m223 178.13a2.69 2.69 0 0 0 0 .85c-.22.1-.37-.24-.56-.42.36 0 .53-.24.21-.59.43.19.94-.24 1.33.26-.43.59-.67-.08-.98-.1z"/><path d="m225.28 178.84c.62 0 .37.82.87.91-.6.25-.69-.63-.87-.91z"/><path d="m283 137.77c.54.67.79 1.19.59 1.44.75.81.46.19.78-.11l.87 1.25c-1.54-1.26.15.73-.29 1.13-.68-1.48-2.15-2.54-1.95-3.71z"/><path d="m288.32 145.9c-.67-1.39-1.58-2-1.69-2.73.27 0 .61.44.87.39.34 1 1.58 3.31.38 2.62-.25-.55.27.01.44-.28z"/><path d="m265.24 163.31c-.41.36-2.23-2.86-1.28-1.65.42.82.88.47 1.28 1.65z"/><path d="m264.63 163.65c.73.34 1 1.84 1.32 2.63-.59-.28-.52-1.7-1.32-2.63z"/><path d="m292.34 158.26c.12-.44-.34-1.47.09-1.59 1.47 3.19 1.27 3.39 2.43 5.86-.7-.77-.56-.19-1.11-.5l-.43-1.23c.22 0 .4.69.6 1.16.34-.9-.92-3.63-1.58-3.7z"/><path d="m299.39 162.75c.73 1.35.71 3 1.57 5.4-.82-1.36-1.2-3.66-1.57-5.4z"/><path d="m307.74 165.59c-.52-1.5.42-.79-.32-2.61.58.31 1.06 2.27 1.67 2.2-.21 1.58-1.36-2.18-1.35.41z"/><path d="m299.49 168.09a41.41 41.41 0 0 0 .48 4.24l.34-.09c-.13 2.15-1.65-4.24-.82-4.15z"/><path d="m307.1 174.26c.33-.3.52.26.77.38.09 1.21-1.05 1.16-.23 3.24 0 1.62-.44-1.08-.67-.94a5.86 5.86 0 0 0 .13-2.68z"/><path d="m300.71 176.57c.82.51.4 3.11.41 4.32-.17-.24-.34-.46-.58-.41.61 1.86-.28 1.37-.31 3 .07.52.37.29.4.94.15 1.52-.06 2.19-.61 2a13.94 13.94 0 0 0 -.26-4.83l.53-.07a9.15 9.15 0 0 1 -.11-2.4c-.41.32-.53.72-.93-.33-.44-.12.38 2.11-.34 1.48l.14-2.88c.52 2 .7.79 1.27.25-.19 1 .16 1.2.33 2.37.74.19.26-1.92.06-3.44z"/><path d="m308.26 177.24a8 8 0 0 0 .23 3.15c-.3 0-.43.46-.45 1.14.04-.15-.34-4.16.22-4.29z"/><path d="m300.87 185.84a2.61 2.61 0 0 1 -.61 3c.1.49.39.49.3 1.47-1.12-1.14.27-2.74.31-4.47z"/><path d="m221.9 186.94c.17.07-.19-.07-.16-.05-.37-.19.03 0 .16.05z"/><path d="m259.4 205.84c.28-.41.28-.88.06-.53.44-1.26 1-1.31.91.13-.1.25-.91.15-.49.63-.23.31-.16-.19-.48-.23z"/><path d="m254.86 213.27c.13.16-.09.26-.16.2a1.29 1.29 0 0 1 -.54 1.22 1.11 1.11 0 0 1 .7-1.42z"/><path d="m221.42 188.11c.33.49 0 .38-.35.45-.14-.27.4-.16.35-.45z"/><path d="m212.37 193.08.21-.1c0 .14.12.13.18.11-.19.34-.22.79-.56 1.07-.27-.51.41-.36.17-1.08z"/><path d="m208.27 195.54c.08-.51 1.28-.08.48-.56a3 3 0 0 0 2.93-.78c-.8.29-1-.07-1.53-.12.56-.81 1.52.22 1.69-.72-.19 0-.23-.32-.22-.49-.27.16-.62.37-.8 0 0-.33 1.08 0 .82-.76a25.65 25.65 0 0 1 -7.93 2.74c.23.2.59.08.82.33-.09.06-.24.06-.2.23.1 0 .23-.06.27.11-.47 0-1.07.49-.73.73.09-.61.7-.36 1.09-.28.23-.39-.46-.83 0-1.08.92.47 1.83-1.1 2.51-.17-.31.54-1.85 0-1.86 1.28.71-.15 1.41-.86 2.17-.27l.2-.61c.53.09.02.31.29.42zm1.77-1.4c.24.52-.28.81-.58.59 0-.34.25-.47.54-.59z"/><path d="m214.75 200.14c.16.38-.53.32-.73.51 0-.18 0-.36-.14-.33-.08-.32.62.05.87-.18z"/><path d="m204.92 199.94c-.35.39-1 1-1.66.68.37-.41 1.18-.36 1.66-.68z"/><path d="m203.79 199.09c.19 0 .2.41.27.66-.36 0-1.05.89-1.11-.14.43.04 1.05.5.84-.52z"/><path d="m198.79 195.7c0 .21 0 .31.12.34-.35.57-.83.27-1.16-.1.25-.35.63.13 1.04-.24z"/><path d="m201.22 287.08c1.1-.14 2.5.49 1.36.81.02.27-.51-.54-1.36-.81z"/><path d="m197.14 200.51c.21 0 .25.21.47.17-.27.64-.45.37-1 .56-.25-.24.68-.14.53-.73z"/><path d="m194.31 199.53c-.46.51-1.17-.09-1.65.5.34-.89 1.06-.4 1.65-.5z"/><path d="m193.44 198.4c.07-.29 0-.34-.1-.38.1-.4.25-.34.35-.12 0 .39-.56 1.19-.41.47z"/><path d="m177.25 286.54c.62.56-3.07-1-4.23-.82 1.34-.24-.82-.83-1.71-1.28 1.05-.36 2.36.38 4.23.7-2.22.01.63.96 1.71 1.4z"/><path d="m168 302.08c0-.39 1.94.32 2.75.38-.38.78-2.65.62-5.17.1 1.88-.38 1.88-.35 2.42-.48z"/><path d="m191.76 194.84c-.67.53-.15-.12-.28-.13.26-.33-.22.17.28.13z"/><path d="m120.42 257.58c.31-.06.36.45 1 .95-.63-.25-1.29-.73.1.57.06.47-2.15-1.53-2.74-2.41.22-.14 2.53 2.23 1.64.89z"/><path d="m93.33 210.41c.46 1.54-1.45-3.59-2-4.15.14-.56.26-3.2-.28-4.16.75-1.25.38 3.15 1.19 5.68.3-.26 0-1.57 0-2.34.65.86.1 2.56 1.09 4.97z"/><path d="m92.06 191.67c0 1.16.43 3.63-.2 3.09 0-3.59-1-4.18-1.35-2.31-.2-.38-.24-1.41-.58-1.2.5-2.37 1.3.21 2.13.42z"/><path d="m90.28 181.14c.48.57 1.26-2 1.29-.61-.33 2.18-.77.12-1.39 1.89.15-1.09 0-1.21-.25-1.29.81-3.89.19-5.64 1.44-10a5.15 5.15 0 0 1 -.45 3c.91-1.26.12 2.3.49 4.51l-.88-.05z"/><path d="m88.36 154.63c.46 1.25 1.28-1.62 2-2.57-.07 1.58-3.5 6.75-2 2.57z"/><path d="m109.28 137.5c-.58.92-4 5.68-1.14 1a6.61 6.61 0 0 0 1.14-1z"/><path d="m112.15 132.47a52 52 0 0 1 -3.17 4.84c.32-1.18-.92.14-1.45.24.61-1.11 2-2.88 2.72-2.94.31-.69-.3 0-.29-.8a6.27 6.27 0 0 0 1.78-2.22c.74-.54-.96 1.61.41.88z"/><path d="m113 133.67c.45-1.88 4.78-8.57 8.16-11.62.36-.39 0-.49-.06-.68 1-.66 1.28-.73 1.28 0 1.4-1.35 1.29-1.62 2.38-2 .34-.42.51-.75.28-1 7.33-5.87 12.88-10.45 17.94-13.91-.83 1.13 1.38-.49 1.29.45a4 4 0 0 1 1-.79c-.32-.2-1.47.72-1.46 0 1.92-.78 2.62-1.41 3.82-1-.32.77-2.38.46-1.62 1.37-10.88 6.64-16.77 10.44-27.79 21.51-.93.79-.32.89-.53 1.36-.41 0-1.43 1.66-1.79 1.52-.32.62-.75 1.28-.35 1.5-.76 1.02-2.55 2.67-2.55 3.29z"/><path d="m147.29 121.93c-.3-.42 1.3-1.19 1.52-1.69a3.13 3.13 0 0 0 -1.12.34c1.22-2.27 5.1-3.47 8-5.48-.45 1.35 7.21-2.13 7.47-3.38 1-.63.91.1 1.59-.12.78-.6 1-1.22 2-1.81a.65.65 0 0 0 0 .79c1.39-.89 2.53-.12 3.92-.29.19-.63 1.39-.92 2.4-1.06-1.4.88.52.49 2-.1-1.89 1.13-2.35 1.83-4.51 2.73 0-.26.49-.49.48-.76a11.13 11.13 0 0 0 -4.63 1.34c-.54 0-.71-.4-.37-.79-.85.9-4.17 1.63-4.29 2.94a11.41 11.41 0 0 0 -2.45.85c0-.79 1-.47 2-1a1.66 1.66 0 0 0 .41-.8 89.82 89.82 0 0 0 -14.42 8.29z"/><path d="m154 125.31c-.84-.08-2.4 1.15-3.12 1 1.2-.85 3.15-1.38 3.73-2 .73-.31-.55.77-.61 1z"/><path d="m200.55 198.34a2.07 2.07 0 0 0 -.29-.66c.33.43.69.66.73.22.12.1.26.41.36.41.24.58-.13.09-.26.32-.23-.48-.41-.47-.54-.29z"/><path d="m156.55 107.34c-1.9 1.3-3.1 1.64-5 3 0-.27.24-.56.83-.89-.25 0-.5 0-.61-.26a13.18 13.18 0 0 0 5.18-2.88c-.45.44-2.67 2.21-.4 1.03z"/><path d="m161.37 104.62c-.88-.12 1.58-.47 1.4.17a4.78 4.78 0 0 0 -1.54.46c-.3-.14 1.25-.99.14-.63z"/><path d="m161.51 100.18c-.13-.11.08-.21.31-.32l-.15-.32c.87.5 4.59-1.89 4.69-.6-.78.41-.82.06-1-.18-1.66.53-2.89 1.12-3.85 1.42z"/><path d="m172.68 82.77c1.35-.41 1.57 0 2.94-.38a12.61 12.61 0 0 1 -3.57 1.49c0 .31.67.18.67.53a12 12 0 0 0 -3.1 1 1.88 1.88 0 0 0 1.44-.09c-.46.68-1.38.54-2 1.37-.95.24-.19-.75.14-1a6.49 6.49 0 0 0 -2.38.22c.23-.26.95-.5.7-.79 2.81-1.12 4.14-1.31 5.16-2.35z"/><path d="m180.45 119.37c-.37.09-.24-.11-.06-.17-.26-.1-.79.07-.81-.29a15.87 15.87 0 0 1 2.46 0c1.04.15-1.84.09-1.59.46z"/><path d="m182.12 114.44a2.53 2.53 0 0 1 1.91-1.18c-1.12 1.17 2-.76 3.2-.58.31-.12.76-1 .19-.77 1.53-.16 7.33-1 9.74-.42.72-1.18 2.82.24 3.44-.88.72 0 .28.59.83.68 1.83-.71 3.89.22 5.54.21.61.1-.56 1.37 1.2.78.63.77-2.19.24-2.42-.51a24.45 24.45 0 0 1 -4.32-.31c-.67.07-.86.34-.72.73-2.21 0-2.42-.39-4.2.24.5-2-5 .65-7.2-.38-1.67 1.02-4.42 1.33-7.19 2.39z"/><path d="m186.76 100.36a4.46 4.46 0 0 1 2.46-.74c.26-.54-.69-.36-.6-.8a23.54 23.54 0 0 0 5-1.43c-1.14 1 9.4 0 10.14 1.52a4.46 4.46 0 0 1 1.87-.16 10.3 10.3 0 0 0 4.37 1.16c1.64.84 1.83 1 5.9 2.1a12.15 12.15 0 0 1 3.72 2.14c-1.2-.61-3.92-.74-3.13-.55-10.37-1.57-22.37-2.78-27.69.52 1.37 0 2.33-1.23 5.2-1.28-2 .79-2.23 1.61-4.95 2.48 0 .5 2.57-.6 2.09.22-.6.4-1.36 0-2.77.42 1.45-1.5-4-.23-5.15.25-.08-.34 1-.46.59-.86 1.39-.44 2.51-.12 3.44-.79-1.93-.79-4.51.55-7.46 1 2.81-.83 5-3.25 8.4-4.41 1.72-.11 4-.4 4.08-1.31 1-.08.88.49 2.18.24 1.33-.47-.35-1 3-1 .6-.15.81-.42.84-.74-1.4-.8-5.75.77-5-.27-1 0-.56.42-1.23.53-.1.43 1.93-.36 1.36.34-.74.45-2 .38-1.79-.28-2.11.48-2.29 1.34-4.87 1.7z"/><path d="m186.64 114.8c0-.39.92 0 1.72-.4.51.45.26.42-.14.94-.44-.27-.02-.83-1.58-.54z"/><path d="m201.88 112.5a19.31 19.31 0 0 1 5.06.4c-.47-.13-4.8.15-5.06-.4z"/><path d="m208.88 105.29c-.43 1.46-5.25-.45-7.43-.51a22.68 22.68 0 0 1 7.43.51z"/><path d="m209.06 147c.79.11.41.87.92 1.11.31.33-1.29-.49-.92-1.11z"/><path d="m195.51 186.94c0-.05-.58.55-.75.66s.38-.24.75-.66z"/><path d="m212 171.07c.37-.25 0 .45.25.54a.64.64 0 0 1 -.76-.05c.31-.15.67-.1.51-.49z"/><path d="m194.27 188c-.05.07 0 .1-.51.55a5.63 5.63 0 0 1 .51-.55z"/><path d="m192.9 189.12c.46-.34-.23.21-.26.25-.23.21-.05.01.26-.25z"/><path d="m209.51 184.79c.05.19.28.13.33.33a.65.65 0 0 1 -.85-.69c.57.29.74-.37 1.26-.64.55.06 1.06.3 1.42-.21-.11.51-.08 1-.54 1.42-.08-.49-.2-1.07-1.62-.21z"/><path d="m214 196c.4-.39-.15-.26-.53-.13.8 0 .23.68.52 1.23a3.08 3.08 0 0 1 -1.08 0c0-.24.57-1-.68-1-.52-.68-.25-1.86-1.23-2.45-1.83.34-.81 1-.31 1.65-.65-.09-.61.19-.9.28-1.8-.47-.4-1.42 0-2.25.21.21.66-.23.88 0 1.17-.54 1.38-1.56 2.77-2.12 0-.27-.34-.2-.24-.53a1.67 1.67 0 0 0 .87-.24c-.35-.35-.68-.85.42-.78-.1-.2 0-.62-.47-.41.18-.24.64-.36.76-.64s-.58 0-.45-.4c.8-.28.46-1.07 1.36-1.35-.8-.39.25-1.48 1-2 2.07 1.28-.25 3.07.17 5.23-1.12.15-1.3.83-.88 1.49-.13.23-.51.32-1 .34a1.19 1.19 0 0 1 -.08 1c1 1 2.75 1.91 2.79 3.79-.62.1-.28.21-.52.52a8.94 8.94 0 0 0 -1.9-1.35 3.06 3.06 0 0 1 -1.27.12z"/><path d="m151.05 173.79a.76.76 0 0 0 -.68.31c-.73-.88-1.24-.83-2-1.74.43-.13.64-1 .14-.87-.27-.62 1.41.21 0-1.06.52-.43 1.35 1 1.83.39a3.8 3.8 0 0 0 .71 2.97z"/><path d="m260.58 93.62c.9.1 2.17 1 3.06 1.14.57.5.3.82 0 1.13.45.11.65.33.42.57 1.12.26 1.47 1.16 2.71 1.64a3.9 3.9 0 0 0 1.53 2.51c-2.08-1.33-3.51-3.44-4.83-4a7.85 7.85 0 0 0 -1.06-2c-.86-.41-1.43-.16-2.56-1.19.3-.21.27-.48-.22-.85.23 0 .45 0 .59-.21a4.34 4.34 0 0 1 .36 1.26z"/><path d="m300.85 169.18c.3.68.71.54.95 1.71-.84 0-.12 2.11.06 4-.64.31-.68-3-1.19-4.15.04-.57.6-.36.18-1.56z"/><path d="m156.21 94c.4.25-1.28.7-.79 1.33-.76-.3-3 1.07-3.28.24-1.93 1.29-3.06 2.53-2 3.56a26.12 26.12 0 0 1 -11.65 5.56c-2.42-1-1.82-3.33 1.07-5.4 4.27-3.25 10.59-3.68 13.7-6.24a56.17 56.17 0 0 1 7.7-2.38c-.23.7.13.38.43 1-1.49.77-4.25 1.59-3.76 2.32a2.45 2.45 0 0 1 -1.42.01z"/></g></svg>